<svg width="258" height="257" viewBox="0 0 258 257" fill="none" xmlns="http://www.w3.org/2000/svg">
    <g opacity="0.8" filter="url(#filter0_b_5_1379)">
        <circle cx="128.804" cy="128.401" r="128.401" fill="#2B2B2B" />
        <circle cx="128.804" cy="128.401" r="127.901" stroke="white" stroke-opacity="0.5" />
    </g>
    <path
        d="M243.035 157.11C227.345 220.055 163.572 258.318 100.718 242.627C37.7716 226.936 -0.491424 163.166 15.1997 100.313C30.8899 37.3687 94.5699 -0.894376 157.516 14.7967C220.37 30.3952 258.726 94.1651 243.035 157.11Z"
        fill="#F0B90B" />
    <path
        d="M96.5328 86.3633L129.237 68.0137L161.95 86.3633L149.957 93.1561L129.237 81.568L108.564 93.1483L96.5328 86.3633ZM161.95 109.547L149.957 102.754L129.237 114.343L108.564 102.754L96.5406 109.547V123.102L117.191 134.697V157.842L129.245 164.635L141.268 157.842V134.697L161.957 123.102L161.95 109.547ZM161.95 146.285V132.708L149.957 139.5V153.055L161.95 146.285ZM170.507 151.081L149.825 162.638V176.231L182.53 157.842V121.135L170.507 127.897V151.081ZM158.483 97.9669L170.476 104.76V118.314L182.53 111.552V97.9669L170.507 91.1664L158.483 97.998V97.9669ZM117.183 167.581V181.135L129.237 187.928L141.261 181.135V167.604L129.237 174.366L117.214 167.573L117.183 167.581ZM96.5328 146.262L108.525 153.055V139.5L96.5328 132.7V146.301V146.262ZM117.183 97.9669L129.237 104.752L141.261 97.9591L129.237 91.1587L117.214 97.9902L117.183 97.9669ZM87.9681 104.76L99.9914 97.9669L87.9992 91.1664L75.9526 97.998V111.568L87.9681 118.33V104.76ZM87.9681 127.905L75.9448 121.143V157.85L108.657 176.239V162.614L87.9992 151.05V127.866L87.9681 127.905Z"
        fill="white" />
    <defs>
        <filter id="filter0_b_5_1379" x="-60.6969" y="-61.1" width="379.001" height="379.001"
            filterUnits="userSpaceOnUse" color-interpolation-filters="sRGB">
            <feFlood flood-opacity="0" result="BackgroundImageFix" />
            <feGaussianBlur in="BackgroundImageFix" stdDeviation="30.55" />
            <feComposite in2="SourceAlpha" operator="in" result="effect1_backgroundBlur_5_1379" />
            <feBlend mode="normal" in="SourceGraphic" in2="effect1_backgroundBlur_5_1379"
                result="shape" />
        </filter>
    </defs>
</svg>
    