<svg width="236" height="236" viewBox="0 0 236 236" fill="none" xmlns="http://www.w3.org/2000/svg">
    <path
        d="M231.632 146.11C215.942 209.055 152.169 247.318 89.3146 231.627C26.3686 215.936 -11.8945 152.166 3.79661 89.313C19.4868 26.3687 83.1668 -11.8944 146.113 3.79674C208.967 19.3952 247.323 83.1651 231.632 146.11Z"
        fill="url(#paint0_linear_5_1364)" />
    <path
        d="M173.626 103.079C175.919 87.4819 164.084 79.0414 147.754 73.4449L153.075 52.2519L140.231 49.0408L135.093 69.6834C131.698 68.8577 128.212 68.032 124.726 67.298L129.864 46.5637L117.019 43.3527L111.79 64.454C108.946 63.8117 106.193 63.1695 103.533 62.5273V62.4356L85.7343 58.0318L82.3397 71.7935C82.3397 71.7935 91.8812 73.9954 91.6977 74.0872C96.9271 75.3716 97.8446 78.8579 97.6611 81.6102L91.6059 105.739C91.9729 105.831 92.4316 105.923 92.9821 106.198C92.5234 106.106 92.0647 106.014 91.6059 105.831L83.1654 139.593C82.5232 141.153 80.8718 143.538 77.2938 142.62C77.3855 142.804 67.9358 140.327 67.9358 140.327L61.5137 155.098L78.303 159.318C81.4223 160.144 84.4499 160.878 87.4774 161.703L82.1562 183.08L95.0005 186.291L100.322 165.098C103.808 166.015 107.294 166.933 110.597 167.759L105.368 188.86L118.212 192.071L123.533 170.694C145.552 174.823 162.066 173.172 168.947 153.263C174.543 137.299 168.672 128.033 157.112 121.978C165.644 120.051 171.974 114.455 173.626 103.079ZM144.176 144.364C140.231 160.327 113.258 151.703 104.542 149.501L111.606 121.152C120.322 123.354 148.396 127.666 144.176 144.364ZM148.212 102.803C144.543 117.391 122.157 109.959 114.909 108.124L121.331 82.4359C128.579 84.2708 151.974 87.6654 148.212 102.803Z"
        fill="white" />
    <defs>
        <linearGradient id="paint0_linear_5_1364" x1="11737.3" y1="-5.35835" x2="11737.3"
            y2="23484.6" gradientUnits="userSpaceOnUse">
            <stop stop-color="#F9AA4B" />
            <stop offset="1" stop-color="#F7931A" />
        </linearGradient>
    </defs>
</svg>
    