<svg width="257" height="257" viewBox="0 0 257 257" fill="none" xmlns="http://www.w3.org/2000/svg">
    <g opacity="0.8" filter="url(#filter0_b_5_1384)">
        <circle cx="128.605" cy="128.401" r="128.401" fill="#2B2B2B" />
        <circle cx="128.605" cy="128.401" r="127.901" stroke="white" stroke-opacity="0.5" />
    </g>
    <path
        d="M242.836 157.11C227.146 220.055 163.373 258.318 100.519 242.627C37.5727 226.936 -0.690399 163.166 15.0007 100.313C30.6909 37.3687 94.3709 -0.894376 157.317 14.7967C220.171 30.3952 258.527 94.1651 242.836 157.11Z"
        fill="#121212" />
    <path
        d="M167.012 104.555C166.348 105.165 165.482 105.508 164.58 105.518H79.1733C76.1422 105.518 74.6111 102.052 76.7095 100.024L90.738 86.5003C91.39 85.8708 92.2567 85.5125 93.1628 85.4977H178.903C181.966 85.4977 183.466 88.9951 181.336 91.0313L167.012 104.555Z"
        fill="url(#paint0_linear_5_1384)" />
    <path
        d="M167.012 171.207C166.344 171.807 165.478 172.139 164.58 172.14H79.1733C76.1422 172.14 74.6111 168.705 76.7095 166.676L90.738 153.114C91.3917 152.492 92.2605 152.147 93.1628 152.15H178.903C181.966 152.15 183.466 155.617 181.336 157.645L167.012 171.207Z"
        fill="url(#paint1_linear_5_1384)" />
    <path
        d="M167.012 119.772C166.344 119.173 165.478 118.841 164.58 118.839H79.1733C76.1422 118.839 74.6111 122.275 76.7095 124.303L90.738 137.865C91.4 138.474 92.2635 138.817 93.1628 138.829H178.903C181.966 138.829 183.466 135.363 181.336 133.334L167.012 119.772Z"
        fill="url(#paint2_linear_5_1384)" />
    <defs>
        <filter id="filter0_b_5_1384" x="-60.8959" y="-61.1" width="379.001" height="379.001"
            filterUnits="userSpaceOnUse" color-interpolation-filters="sRGB">
            <feFlood flood-opacity="0" result="BackgroundImageFix" />
            <feGaussianBlur in="BackgroundImageFix" stdDeviation="30.55" />
            <feComposite in2="SourceAlpha" operator="in" result="effect1_backgroundBlur_5_1384" />
            <feBlend mode="normal" in="SourceGraphic" in2="effect1_backgroundBlur_5_1384"
                result="shape" />
        </filter>
        <linearGradient id="paint0_linear_5_1384" x1="75.7458" y1="383.701" x2="185.051"
            y2="382.699" gradientUnits="userSpaceOnUse">
            <stop stop-color="#599DB0" />
            <stop offset="1" stop-color="#47F8C3" />
        </linearGradient>
        <linearGradient id="paint1_linear_5_1384" x1="75.7458" y1="112.047" x2="184.352"
            y2="111.215" gradientUnits="userSpaceOnUse">
            <stop stop-color="#C44FE2" />
            <stop offset="1" stop-color="#73B0D0" />
        </linearGradient>
        <linearGradient id="paint2_linear_5_1384" x1="81.8779" y1="128.834" x2="178.204"
            y2="128.834" gradientUnits="userSpaceOnUse">
            <stop stop-color="#778CBF" />
            <stop offset="1" stop-color="#5DCDC9" />
        </linearGradient>
    </defs>
</svg>
    