<svg width="58" height="68" viewBox="0 0 58 68" fill="none" xmlns="http://www.w3.org/2000/svg">
    <g filter="url(#filter0_d_110_1965)">
        <path
            d="M16.5991 53.9463L9.52528 47.6854L42.3043 14.6429C45.8 18.3189 49.0997 22.4988 49.5894 27.5478C50.4236 36.1473 46.2816 43.8173 43.4085 46.6915C31.9762 58.1738 20.5813 56.1875 16.5991 53.9463Z"
            fill="url(#paint0_linear_110_1965)" />
        <path
            d="M40.3009 44.1162C48.8944 34.7499 49.3048 21.2335 41.3306 13.9172C33.3543 6.59899 19.4588 8.07825 10.8676 17.4421C2.27404 26.8083 1.86363 40.3248 9.83782 47.641C17.8141 54.9593 31.7096 53.48 40.3009 44.1162Z"
            fill="url(#paint1_linear_110_1965)" />
        <path
            d="M40.3009 44.1162C48.8944 34.7499 49.3048 21.2335 41.3306 13.9172C33.3543 6.59899 19.4588 8.07825 10.8676 17.4421C2.27404 26.8083 1.86363 40.3248 9.83782 47.641C17.8141 54.9593 31.7096 53.48 40.3009 44.1162Z"
            stroke="url(#paint2_radial_110_1965)" stroke-width="0.5" />
        <path
            d="M40.3009 44.1162C48.8944 34.7499 49.3048 21.2335 41.3306 13.9172C33.3543 6.59899 19.4588 8.07825 10.8676 17.4421C2.27404 26.8083 1.86363 40.3248 9.83782 47.641C17.8141 54.9593 31.7096 53.48 40.3009 44.1162Z"
            stroke="url(#paint3_linear_110_1965)" stroke-opacity="0.05" stroke-width="0.5" />
        <g filter="url(#filter1_iii_110_1965)">
            <path
                d="M38.6656 42.5224C46.3157 34.1844 46.6364 22.2124 39.608 15.7638C32.5746 9.31072 19.9124 10.5983 12.2676 18.9306C4.61744 27.2687 4.29674 39.2407 11.3252 45.6892C18.3586 52.1423 31.0208 50.8547 38.6656 42.5224Z"
                stroke="url(#paint4_linear_110_1965)" stroke-opacity="0.15" />
            <path
                d="M38.6656 42.5224C46.3157 34.1844 46.6364 22.2124 39.608 15.7638C32.5746 9.31072 19.9124 10.5983 12.2676 18.9306C4.61744 27.2687 4.29674 39.2407 11.3252 45.6892C18.3586 52.1423 31.0208 50.8547 38.6656 42.5224Z"
                stroke="url(#paint5_linear_110_1965)" stroke-opacity="0.25" />
        </g>
        <path
            d="M34.0007 25.3567C33.8329 25.4691 33.6426 25.5322 33.4665 25.5341H16.8505C16.2608 25.5341 16.1819 24.8962 16.7184 24.523L20.302 22.0346C20.4686 21.9188 20.6599 21.8528 20.8371 21.8501H37.5181C38.1139 21.8501 38.1847 22.4936 37.6418 22.8683L34.0007 25.3567Z"
            fill="url(#paint6_linear_110_1965)" />
        <path
            d="M29.7895 37.6214C29.6215 37.7317 29.4321 37.7927 29.2573 37.793H12.6413C12.0516 37.793 11.9708 37.1609 12.5072 36.7876L16.0933 34.2921C16.2598 34.1776 16.4506 34.1141 16.6259 34.1148H33.3069C33.9027 34.1148 33.9755 34.7526 33.4331 35.1258L29.7895 37.6214Z"
            fill="url(#paint7_linear_110_1965)" />
        <path
            d="M33.0392 28.1565C32.947 28.0462 32.7995 27.9851 32.6248 27.9849H16.0088C15.4191 27.9849 14.9042 28.617 15.1843 28.9902L17.0567 31.4858C17.1471 31.5978 17.2934 31.6609 17.4676 31.6631H34.1486C34.7444 31.6631 35.2552 31.0253 34.9691 30.652L33.0392 28.1565Z"
            fill="url(#paint8_linear_110_1965)" />
    </g>
    <defs>
        <filter id="filter0_d_110_1965" x="-3.92207" y="5.23271" width="61.4204" height="62.2357"
            filterUnits="userSpaceOnUse" color-interpolation-filters="sRGB">
            <feFlood flood-opacity="0" result="BackgroundImageFix" />
            <feColorMatrix in="SourceAlpha" type="matrix"
                values="0 0 0 0 0 0 0 0 0 0 0 0 0 0 0 0 0 0 127 0" result="hardAlpha" />
            <feOffset dy="4" />
            <feGaussianBlur stdDeviation="3.9" />
            <feComposite in2="hardAlpha" operator="out" />
            <feColorMatrix type="matrix" values="0 0 0 0 0 0 0 0 0 0 0 0 0 0 0 0 0 0 0.4 0" />
            <feBlend mode="normal" in2="BackgroundImageFix" result="effect1_dropShadow_110_1965" />
            <feBlend mode="normal" in="SourceGraphic" in2="effect1_dropShadow_110_1965"
                result="shape" />
        </filter>
        <filter id="filter1_iii_110_1965" x="1.78137" y="7.17627" width="47.3705" height="47.1006"
            filterUnits="userSpaceOnUse" color-interpolation-filters="sRGB">
            <feFlood flood-opacity="0" result="BackgroundImageFix" />
            <feBlend mode="normal" in="SourceGraphic" in2="BackgroundImageFix" result="shape" />
            <feColorMatrix in="SourceAlpha" type="matrix"
                values="0 0 0 0 0 0 0 0 0 0 0 0 0 0 0 0 0 0 127 0" result="hardAlpha" />
            <feOffset dx="4" dy="-6" />
            <feGaussianBlur stdDeviation="2" />
            <feComposite in2="hardAlpha" operator="arithmetic" k2="-1" k3="1" />
            <feColorMatrix type="matrix"
                values="0 0 0 0 0.316667 0 0 0 0 0.316667 0 0 0 0 0.316667 0 0 0 0.25 0" />
            <feBlend mode="normal" in2="shape" result="effect1_innerShadow_110_1965" />
            <feColorMatrix in="SourceAlpha" type="matrix"
                values="0 0 0 0 0 0 0 0 0 0 0 0 0 0 0 0 0 0 127 0" result="hardAlpha" />
            <feOffset dx="-4" dy="6" />
            <feGaussianBlur stdDeviation="2" />
            <feComposite in2="hardAlpha" operator="arithmetic" k2="-1" k3="1" />
            <feColorMatrix type="matrix"
                values="0 0 0 0 0.270833 0 0 0 0 0.270833 0 0 0 0 0.270833 0 0 0 0.25 0" />
            <feBlend mode="normal" in2="effect1_innerShadow_110_1965"
                result="effect2_innerShadow_110_1965" />
            <feColorMatrix in="SourceAlpha" type="matrix"
                values="0 0 0 0 0 0 0 0 0 0 0 0 0 0 0 0 0 0 127 0" result="hardAlpha" />
            <feOffset dx="-4" dy="-4" />
            <feGaussianBlur stdDeviation="2" />
            <feComposite in2="hardAlpha" operator="arithmetic" k2="-1" k3="1" />
            <feColorMatrix type="matrix"
                values="0 0 0 0 0.270833 0 0 0 0 0.270833 0 0 0 0 0.270833 0 0 0 0.25 0" />
            <feBlend mode="normal" in2="effect2_innerShadow_110_1965"
                result="effect3_innerShadow_110_1965" />
        </filter>
        <linearGradient id="paint0_linear_110_1965" x1="54.3554" y1="26.9146" x2="20.5357"
            y2="56.5209" gradientUnits="userSpaceOnUse">
            <stop stop-color="#313131" />
            <stop offset="0.247213" stop-color="#444444" />
            <stop offset="0.575595" stop-color="#4F4F4F" />
            <stop offset="0.777815" stop-color="#171717" />
            <stop offset="0.962213" stop-color="#171717" />
        </linearGradient>
        <linearGradient id="paint1_linear_110_1965" x1="36.083" y1="50.1197" x2="6.11185"
            y2="4.90725" gradientUnits="userSpaceOnUse">
            <stop stop-color="#010101" stop-opacity="0" />
            <stop stop-opacity="0.9" />
            <stop offset="0.459707" stop-color="#363636" stop-opacity="0.971584" />
            <stop offset="0.827067" stop-color="#0A0A0A" stop-opacity="0.995031" />
            <stop offset="1" stop-color="#010101" />
            <stop offset="1" stop-color="white" stop-opacity="0" />
        </linearGradient>
        <radialGradient id="paint2_radial_110_1965" cx="0" cy="0" r="1"
            gradientUnits="userSpaceOnUse"
            gradientTransform="translate(13.0764 1.38385) rotate(68.4804) scale(30.1807 26.0269)">
            <stop stop-color="#343434" />
            <stop offset="1" stop-color="#A4A4A4" stop-opacity="0" />
        </radialGradient>
        <linearGradient id="paint3_linear_110_1965" x1="23.9078" y1="29.241" x2="70.1716"
            y2="44.5606" gradientUnits="userSpaceOnUse">
            <stop stop-color="#3D3F3E" />
            <stop offset="1" stop-color="#606261" />
        </linearGradient>
        <linearGradient id="paint4_linear_110_1965" x1="-16.068" y1="22.3925" x2="30.1132"
            y2="44.1177" gradientUnits="userSpaceOnUse">
            <stop stop-color="#58CBC2" stop-opacity="0.25" />
            <stop offset="1" stop-color="white" stop-opacity="0" />
        </linearGradient>
        <linearGradient id="paint5_linear_110_1965" x1="50.7567" y1="46.4315" x2="22.2492"
            y2="31.8201" gradientUnits="userSpaceOnUse">
            <stop stop-color="#3D3F3B" />
            <stop offset="1" stop-color="#EBEBEB" stop-opacity="0.33" />
        </linearGradient>
        <linearGradient id="paint6_linear_110_1965" x1="-1.39173" y1="76.7219" x2="17.7452"
            y2="83.107" gradientUnits="userSpaceOnUse">
            <stop stop-color="#599DB0" />
            <stop offset="1" stop-color="#47F8C3" />
        </linearGradient>
        <linearGradient id="paint7_linear_110_1965" x1="15.7711" y1="26.7354" x2="34.7668"
            y2="33.1038" gradientUnits="userSpaceOnUse">
            <stop stop-color="#C44FE2" />
            <stop offset="1" stop-color="#73B0D0" />
        </linearGradient>
        <linearGradient id="paint8_linear_110_1965" x1="15.9036" y1="29.824" x2="32.6677" y2="35.58"
            gradientUnits="userSpaceOnUse">
            <stop stop-color="#778CBF" />
            <stop offset="1" stop-color="#5DCDC9" />
        </linearGradient>
    </defs>
</svg>
    