<svg width="37" height="36" viewBox="0 0 37 36" fill="none" xmlns="http://www.w3.org/2000/svg">
    <path fill-rule="evenodd" clip-rule="evenodd"
        d="M18.5794 35.4318C28.3636 35.4318 36.2953 27.5001 36.2953 17.7159C36.2953 7.93167 28.3636 0 18.5794 0C8.79519 0 0.863525 7.93167 0.863525 17.7159C0.863525 27.5001 8.79519 35.4318 18.5794 35.4318ZM18.5797 7.86737L13.3482 10.7757L15.2727 11.8514L18.5797 10.0151L21.8941 11.8502L23.8124 10.7733L18.5797 7.86737ZM21.8941 13.3702L23.8124 14.4459V16.5912L20.5029 18.4275V22.0928L18.5797 23.1697L16.6527 22.0953V18.4275L13.3495 16.5937V14.4459L15.2727 13.3702L18.5797 15.2053L21.8941 13.3702ZM21.8941 19.1882L23.8124 18.1124V20.2639L21.8941 21.3346V19.1882ZM21.873 22.8547L25.1812 21.0233V17.353L27.1044 16.2823V22.094L21.873 25.0061V22.8547ZM23.2623 12.6133L23.2579 12.6108V12.6157L23.2623 12.6133ZM25.1762 13.6865L23.2623 12.6133L25.1812 11.5351L27.1044 12.6108V14.7622L25.1762 15.833V13.6865ZM16.6515 25.7815V23.635H16.6564L18.5797 24.7107L20.5029 23.6399V25.7815L18.5797 26.8584L16.6515 25.7815ZM15.2665 21.3346L13.3482 20.2589V18.1124L15.2665 19.1882V21.3346ZM16.6583 12.6147L16.6515 12.6108L16.6564 12.6157L16.6583 12.6147ZM16.6583 12.6147L18.5797 13.6865L20.5029 12.6108L18.5797 11.5351L16.6583 12.6147ZM13.9015 12.6108L11.9782 13.6865V15.8392L10.0562 14.7684V12.6157L11.9832 11.5351L13.9015 12.6108ZM10.0549 16.2823L11.9782 17.353L11.9832 17.3481V21.0196L15.2876 22.8497V25.0061L10.0549 22.094V16.2823Z"
        fill="currentColor" />
</svg>
    