<svg width="10" height="7" viewBox="0 0 10 7" fill="none" xmlns="http://www.w3.org/2000/svg">
    <path
        d="M1.89891 0.0769246L8.33648 0.0769252C8.59063 0.0765513 8.83969 0.149271 9.05483 0.286667C9.26996 0.424063 9.44238 0.620516 9.55213 0.853289C9.6806 1.12947 9.73008 1.43675 9.69493 1.7401C9.65979 2.04346 9.54143 2.33068 9.35334 2.56905L6.13456 6.52851C6.00824 6.67651 5.85207 6.7952 5.67662 6.87655C5.50118 6.9579 5.31057 7 5.1177 7C4.92483 7 4.73421 6.9579 4.55877 6.87655C4.38333 6.7952 4.22715 6.67651 4.10084 6.52851L0.88205 2.56905C0.693964 2.33068 0.575605 2.04346 0.540459 1.7401C0.505313 1.43675 0.554796 1.12947 0.683266 0.853288C0.793012 0.620516 0.965433 0.424062 1.18057 0.286666C1.39571 0.14927 1.64476 0.0765507 1.89891 0.0769246Z"
        fill="#FFFFFFCC" fill-opacity="0.8" />
</svg>
    