<svg width="24" height="24" viewBox="0 0 24 24" fill="none" xmlns="http://www.w3.org/2000/svg">
    <g clip-path="url(#clip0_66_924)">
    <path fill-rule="evenodd" clip-rule="evenodd" d="M19.495 3.13296C19.7166 2.99967 19.9812 2.95739 20.2333 3.01501C20.4854 3.07262 20.7054 3.22564 20.847 3.44196L21.837 4.95196C21.9661 5.14922 22.0213 5.38573 21.993 5.61975C21.9646 5.85376 21.8545 6.07024 21.682 6.23096L21.679 6.23496L21.665 6.24796L21.608 6.30096L21.383 6.51596C20.138 7.72356 18.9308 8.96949 17.763 10.252C15.566 12.668 12.957 15.83 11.201 18.898C10.711 19.754 9.51404 19.938 8.80404 19.199L2.31904 12.461C2.2261 12.3644 2.15353 12.2501 2.10565 12.1249C2.05777 11.9997 2.03555 11.8661 2.0403 11.7322C2.04506 11.5982 2.0767 11.4666 2.13335 11.3451C2.18999 11.2236 2.27048 11.1147 2.37004 11.025L4.33004 9.25696C4.50228 9.10167 4.72314 9.01107 4.95481 9.00067C5.18649 8.99028 5.41458 9.06072 5.60004 9.19996L8.90904 11.681C14.078 6.58396 17.009 4.62796 19.495 3.13296Z" fill="white"/>
    </g>
    <defs>
    <clipPath id="clip0_66_924">
    <rect width="24" height="24" fill="white"/>
    </clipPath>
    </defs>
    </svg>
    