<svg width="12" height="10" viewBox="0 0 12 10" fill="none" xmlns="http://www.w3.org/2000/svg">
    <path
        d="M1.79082 0.500002L10.2092 0.500003C10.5415 0.499517 10.8672 0.594051 11.1486 0.772666C11.4299 0.951281 11.6554 1.20667 11.7989 1.50927C11.9669 1.86832 12.0316 2.26778 11.9856 2.66214C11.9397 3.05649 11.7849 3.42989 11.5389 3.73977L7.32974 8.88706C7.16456 9.07946 6.96033 9.23376 6.73091 9.33952C6.50148 9.44527 6.25221 9.5 6 9.5C5.74779 9.5 5.49852 9.44527 5.26909 9.33951C5.03967 9.23376 4.83544 9.07946 4.67026 8.88706L0.461078 3.73977C0.21512 3.42989 0.0603414 3.05649 0.014382 2.66213C-0.0315774 2.26778 0.0331304 1.86831 0.201131 1.50927C0.344644 1.20667 0.570117 0.95128 0.85145 0.772665C1.13278 0.59405 1.45847 0.499517 1.79082 0.500002Z"
        fill="white" fill-opacity="0.8" />
</svg>
    