<svg width="73" height="72" viewBox="0 0 73 72" fill="none" xmlns="http://www.w3.org/2000/svg">
    <circle cx="36.5" cy="35.5577" r="35.5577" fill="url(#paint0_linear_36_5876)" />
    <path
        d="M33.2706 45.7873L38.9238 51.4105C39.271 51.7661 39.705 52.0249 40.183 52.1614C40.6611 52.2979 41.1664 52.3073 41.6492 52.1886C42.1346 52.0756 42.5827 51.8397 42.9504 51.5036C43.3182 51.1674 43.5932 50.7423 43.749 50.2693L53.0308 22.4642C53.225 21.9434 53.2653 21.3779 53.147 20.8348C53.0287 20.2918 52.7568 19.7942 52.3635 19.4012C51.9703 19.0082 51.4723 18.7365 50.9289 18.6182C50.3855 18.5 49.8195 18.5403 49.2984 18.7344L21.4737 28.0123C20.984 28.179 20.5478 28.4735 20.2101 28.8652C19.8724 29.2569 19.6456 29.7316 19.553 30.2403C19.4574 30.7032 19.4785 31.1827 19.6144 31.6355C19.7504 32.0882 19.9968 32.5001 20.3317 32.834L27.4358 39.9332L27.2022 48.9231L33.2706 45.7873ZM52.2028 19.305L27.4358 39.9306L52.2028 19.305Z"
        fill="url(#paint1_linear_36_5876)" />
    <path
        d="M52.2028 19.305L27.4358 39.9306M33.2706 45.7873L38.9238 51.4105C39.271 51.7661 39.705 52.0249 40.183 52.1614C40.6611 52.2979 41.1664 52.3073 41.6492 52.1886C42.1346 52.0756 42.5827 51.8397 42.9504 51.5036C43.3182 51.1674 43.5932 50.7423 43.749 50.2693L53.0308 22.4642C53.225 21.9434 53.2653 21.3779 53.147 20.8348C53.0287 20.2918 52.7568 19.7942 52.3635 19.4012C51.9703 19.0082 51.4723 18.7365 50.9289 18.6182C50.3855 18.5 49.8195 18.5403 49.2984 18.7344L21.4737 28.0123C20.984 28.179 20.5478 28.4735 20.2101 28.8652C19.8724 29.2569 19.6456 29.7316 19.553 30.2403C19.4574 30.7032 19.4785 31.1827 19.6144 31.6355C19.7504 32.0882 19.9968 32.5001 20.3317 32.834L27.4358 39.9332L27.2022 48.9231L33.2706 45.7873Z"
        stroke="white" stroke-width="3" stroke-linecap="round" stroke-linejoin="round" />
    <defs>
        <linearGradient id="paint0_linear_36_5876" x1="0.942261" y1="35.5577" x2="51.789"
            y2="35.5577" gradientUnits="userSpaceOnUse">
            <stop stop-color="#FF3B10" />
            <stop offset="1" stop-color="#F3C111" />
        </linearGradient>
        <linearGradient id="paint1_linear_36_5876" x1="19.4941" y1="35.4115" x2="43.603"
            y2="35.4115" gradientUnits="userSpaceOnUse">
            <stop stop-color="#FF3B10" />
            <stop offset="1" stop-color="#F3C111" />
        </linearGradient>
    </defs>
</svg>
    