<svg width="19" height="18" viewBox="0 0 19 18" fill="none" xmlns="http://www.w3.org/2000/svg">
    <g clip-path="url(#clip0_70_354)">
        <path
            d="M6.77047 0.592074C4.97199 1.21598 3.42098 2.40018 2.34527 3.97073C1.26955 5.54128 0.725832 7.4154 0.793966 9.31781C0.8621 11.2202 1.5385 13.0506 2.72381 14.5402C3.90912 16.0298 5.54087 17.1 7.37937 17.5936C8.86989 17.9782 10.4315 17.9951 11.93 17.6429C13.2875 17.3379 14.5425 16.6857 15.5722 15.75C16.6439 14.7465 17.4217 13.4698 17.8222 12.0572C18.2575 10.5211 18.3349 8.90573 18.0486 7.33504H9.67859V10.8071H14.5259C14.4291 11.3608 14.2215 11.8894 13.9156 12.361C13.6097 12.8327 13.2117 13.2378 12.7456 13.5521C12.1537 13.9436 11.4865 14.2071 10.7867 14.3255C10.0849 14.456 9.36508 14.456 8.66328 14.3255C7.95198 14.1785 7.27911 13.8849 6.6875 13.4635C5.73708 12.7907 5.02345 11.8349 4.64844 10.7325C4.26708 9.6095 4.26708 8.39199 4.64844 7.26895C4.91538 6.48175 5.35667 5.76501 5.93937 5.17223C6.60621 4.48141 7.45044 3.9876 8.37944 3.74499C9.30844 3.50239 10.2863 3.52035 11.2058 3.79692C11.9241 4.01741 12.5809 4.40264 13.1239 4.92192C13.6705 4.37817 14.2161 3.83301 14.7608 3.28645C15.042 2.99254 15.3486 2.7127 15.6256 2.41176C14.7967 1.6404 13.8238 1.04019 12.7625 0.645512C10.8299 -0.0562212 8.71528 -0.0750796 6.77047 0.592074Z"
            fill="white" />
        <path
            d="M6.77047 0.592025C8.71512 -0.075582 10.8297 -0.05722 12.7625 0.644057C13.824 1.04141 14.7965 1.64452 15.6242 2.41874C15.343 2.71968 15.0462 3.00093 14.7594 3.29343C14.2137 3.83812 13.6686 4.38093 13.1239 4.92187C12.5809 4.40259 11.924 4.01736 11.2058 3.79687C10.2866 3.51933 9.30877 3.50033 8.37952 3.74194C7.45028 3.98356 6.60553 4.47646 5.93797 5.16656C5.35526 5.75934 4.91397 6.47608 4.64703 7.26328L1.73187 5.00624C2.77532 2.93703 4.58199 1.35425 6.77047 0.592025Z"
            fill="#E33629" />
        <path
            d="M0.958436 7.24216C1.11512 6.46562 1.37525 5.71361 1.73187 5.00623L4.64703 7.26888C4.26568 8.39192 4.26568 9.60944 4.64703 10.7325C3.67578 11.4825 2.70406 12.2362 1.73187 12.9937C0.839117 11.2167 0.566842 9.19193 0.958436 7.24216Z"
            fill="#F8BD00" />
        <path
            d="M9.67859 7.33362H18.0486C18.3349 8.9043 18.2574 10.5197 17.8222 12.0558C17.4217 13.4684 16.6439 14.745 15.5722 15.7486C14.6314 15.0146 13.6864 14.2861 12.7456 13.5521C13.212 13.2374 13.6101 12.8319 13.9161 12.3597C14.222 11.8876 14.4294 11.3585 14.5259 10.8042H9.67859C9.67719 9.64831 9.67859 8.49096 9.67859 7.33362Z"
            fill="#587DBD" />
        <path
            d="M1.73047 12.9938C2.70266 12.2438 3.67437 11.49 4.64562 10.7325C5.02139 11.8353 5.73604 12.7911 6.6875 13.4635C7.28095 13.8829 7.95528 14.1741 8.6675 14.3185C9.3693 14.449 10.0891 14.449 10.7909 14.3185C11.4907 14.2 12.1579 13.9366 12.7498 13.545C13.6906 14.2791 14.6356 15.0075 15.5764 15.7416C14.5469 16.6778 13.2918 17.3305 11.9342 17.6358C10.4357 17.9881 8.87411 17.9712 7.38359 17.5866C6.20474 17.2718 5.10361 16.717 4.14922 15.9568C3.13905 15.1548 2.314 14.1441 1.73047 12.9938Z"
            fill="#319F43" />
    </g>
    <defs>
        <clipPath id="clip0_70_354">
            <rect width="18" height="18" fill="white" transform="translate(0.5)" />
        </clipPath>
    </defs>
</svg>
    