<svg width="14" height="17" viewBox="0 0 14 17" fill="none" xmlns="http://www.w3.org/2000/svg">
    <g clip-path="url(#clip0_77_1673)">
        <path
            d="M4.5 11.2092L4.5 2.79082C4.49952 2.45847 4.59405 2.13278 4.77267 1.85145C4.95128 1.57012 5.20667 1.34464 5.50927 1.20113C5.86832 1.03313 6.26778 0.968422 6.66214 1.01438C7.05649 1.06034 7.42989 1.21512 7.73977 1.46108L12.8871 5.67026C13.0795 5.83544 13.2338 6.03967 13.3395 6.26909C13.4453 6.49852 13.5 6.74779 13.5 7C13.5 7.25221 13.4453 7.50148 13.3395 7.73091C13.2338 7.96033 13.0795 8.16456 12.8871 8.32974L7.73977 12.5389C7.42989 12.7849 7.05649 12.9397 6.66214 12.9856C6.26778 13.0316 5.86832 12.9669 5.50927 12.7989C5.20667 12.6554 4.95128 12.4299 4.77267 12.1486C4.59405 11.8672 4.49952 11.5415 4.5 11.2092Z"
            fill="white" fill-opacity="0.8" />
    </g>
    <defs>
        <clipPath id="clip0_77_1673">
            <rect width="17" height="13" fill="white" transform="translate(13.5) rotate(90)" />
        </clipPath>
    </defs>
</svg>
    