<svg width="17" height="18" viewBox="0 0 17 18" fill="none" xmlns="http://www.w3.org/2000/svg">
    <g clip-path="url(#clip0_190_814)">
        <path
            d="M8.704 0.5C11.3772 0.5 13.8525 1.68575 15.4938 3.6824C15.5406 3.739 15.5755 3.80442 15.5964 3.87478C15.6174 3.94514 15.624 4.019 15.6158 4.09196C15.6076 4.16492 15.5849 4.23549 15.5489 4.29947C15.5129 4.36346 15.4644 4.41954 15.4062 4.4644C15.2879 4.55714 15.1381 4.60013 14.9887 4.58426C14.8392 4.56839 14.7018 4.49491 14.6055 4.3794C13.8878 3.51004 12.9861 2.81083 11.9654 2.33223C10.9447 1.85363 9.83048 1.60757 8.70315 1.6118C4.5254 1.6118 1.13815 4.92 1.13815 9C1.13815 13.08 4.5254 16.3882 8.70315 16.3882C9.84673 16.3926 10.9766 16.1394 12.009 15.6475C13.0414 15.1556 13.9498 14.4375 14.6667 13.5466C14.7613 13.43 14.8976 13.3547 15.0468 13.3367C15.1959 13.3188 15.3462 13.3596 15.4657 13.4506C15.5244 13.4947 15.5735 13.5501 15.6103 13.6136C15.6471 13.677 15.6708 13.7473 15.6799 13.82C15.689 13.8928 15.6834 13.9667 15.6634 14.0373C15.6434 14.1079 15.6094 14.1737 15.5635 14.2309C13.9247 16.2794 11.4163 17.5 8.704 17.5C3.89555 17.5 0 13.6946 0 9C0 4.30545 3.8964 0.5 8.704 0.5ZM14.5333 6.586L16.8334 8.88695C17.0561 9.1088 17.0603 9.46495 16.8436 9.68255L14.5962 11.9291C14.4896 12.0335 14.3458 12.0912 14.1966 12.0896C14.0474 12.088 13.905 12.0272 13.8006 11.9206C13.7476 11.869 13.7054 11.8074 13.6762 11.7394C13.6471 11.6714 13.6316 11.5983 13.6308 11.5243C13.6299 11.4503 13.6436 11.3769 13.6712 11.3083C13.6987 11.2396 13.7395 11.177 13.7912 11.1242L15.1062 9.8092H6.3427C6.2688 9.8101 6.19545 9.79643 6.12684 9.76898C6.05823 9.74153 5.99569 9.70083 5.94281 9.64921C5.88992 9.59759 5.84773 9.53606 5.81862 9.46813C5.78952 9.4002 5.77409 9.3272 5.7732 9.2533C5.7732 8.9456 6.0282 8.69655 6.3427 8.69655H15.0714L13.747 7.37225C13.6403 7.26798 13.5794 7.12558 13.5776 6.97639C13.5759 6.82719 13.6335 6.6834 13.7377 6.57665C13.8445 6.47241 13.9882 6.41483 14.1374 6.41659C14.2866 6.41834 14.429 6.47928 14.5333 6.586Z"
            fill="white" fill-opacity="0.8" />
    </g>
    <defs>
        <clipPath id="clip0_190_814">
            <rect width="17" height="17" fill="white" transform="translate(0 0.5)" />
        </clipPath>
    </defs>
</svg>
    