<svg width="20" height="20" viewBox="0 0 20 20" fill="none" xmlns="http://www.w3.org/2000/svg">
    <path
        d="M0 16C0 14.46 -1.19209e-07 13.69 0.347 13.124C0.541 12.807 0.807 12.541 1.124 12.347C1.689 12 2.46 12 4 12C5.54 12 6.31 12 6.876 12.347C7.193 12.541 7.459 12.807 7.653 13.124C8 13.689 8 14.46 8 16C8 17.54 8 18.31 7.653 18.877C7.459 19.193 7.193 19.459 6.876 19.653C6.311 20 5.54 20 4 20C2.46 20 1.69 20 1.124 19.653C0.80735 19.4593 0.541081 19.1934 0.347 18.877C-1.19209e-07 18.31 0 17.54 0 16ZM12 16C12 14.46 12 13.69 12.347 13.124C12.541 12.807 12.807 12.541 13.124 12.347C13.689 12 14.46 12 16 12C17.54 12 18.31 12 18.877 12.347C19.193 12.541 19.459 12.807 19.653 13.124C20 13.689 20 14.46 20 16C20 17.54 20 18.31 19.653 18.877C19.4589 19.1931 19.1931 19.4589 18.877 19.653C18.31 20 17.54 20 16 20C14.46 20 13.69 20 13.124 19.653C12.8073 19.4593 12.5411 19.1934 12.347 18.877C12 18.31 12 17.54 12 16ZM0 4C0 2.46 -1.19209e-07 1.69 0.347 1.124C0.541 0.807 0.807 0.541 1.124 0.347C1.689 -1.19209e-07 2.46 0 4 0C5.54 0 6.31 -1.19209e-07 6.876 0.347C7.193 0.541 7.459 0.807 7.653 1.124C8 1.689 8 2.46 8 4C8 5.54 8 6.31 7.653 6.876C7.459 7.193 7.193 7.459 6.876 7.653C6.311 8 5.54 8 4 8C2.46 8 1.69 8 1.124 7.653C0.807235 7.45904 0.540956 7.19277 0.347 6.876C-1.19209e-07 6.311 0 5.54 0 4ZM12 4C12 2.46 12 1.69 12.347 1.124C12.541 0.807 12.807 0.541 13.124 0.347C13.689 -1.19209e-07 14.46 0 16 0C17.54 0 18.31 -1.19209e-07 18.877 0.347C19.193 0.541 19.459 0.807 19.653 1.124C20 1.689 20 2.46 20 4C20 5.54 20 6.31 19.653 6.876C19.459 7.193 19.193 7.459 18.877 7.653C18.31 8 17.54 8 16 8C14.46 8 13.69 8 13.124 7.653C12.8072 7.45904 12.541 7.19277 12.347 6.876C12 6.311 12 5.54 12 4Z"
        fill="#565656" />
</svg>
    