<svg width="36" height="36" viewBox="0 0 36 36" fill="none" xmlns="http://www.w3.org/2000/svg">
    <path fill-rule="evenodd" clip-rule="evenodd"
        d="M18.0112 35.4318C27.7954 35.4318 35.727 27.5001 35.727 17.7159C35.727 7.93167 27.7954 0 18.0112 0C8.22696 0 0.295288 7.93167 0.295288 17.7159C0.295288 27.5001 8.22696 35.4318 18.0112 35.4318ZM23.6616 15.9816H10.2488C9.68932 15.9816 9.40959 16.6669 9.80121 17.0725L11.9271 19.2544C12.053 19.3802 12.2068 19.4502 12.3747 19.4502H25.7875C26.3469 19.4502 26.6266 18.7648 26.235 18.3592L24.1091 16.1774C23.9832 16.0515 23.8294 15.9816 23.6616 15.9816ZM11.9271 10.9046L9.80121 13.0864C9.40959 13.492 9.68932 14.1774 10.2488 14.1774H23.6616C23.8294 14.1774 23.9972 14.1074 24.1091 13.9816L26.221 11.7997C26.6126 11.3941 26.3329 10.7088 25.7735 10.7088H12.3747C12.2068 10.7088 12.039 10.7787 11.9271 10.9046ZM24.0951 24.5132L26.221 22.3313C26.6126 21.9257 26.3329 21.2404 25.7735 21.2404H12.3747C12.2068 21.2404 12.039 21.3103 11.9271 21.4362L9.80121 23.6181C9.40959 24.0237 9.68932 24.709 10.2488 24.709H23.6476C23.8154 24.709 23.9692 24.6391 24.0951 24.5132Z"
        fill="currentColor" />
</svg>
    