<svg width="25" height="23" viewBox="0 0 25 23" fill="none" xmlns="http://www.w3.org/2000/svg">
    <path
        d="M20.22 10L16.07 10.01C15.9158 10.0006 15.7615 10.0281 15.62 10.09L15.03 10.35L13.2 6.25C12.64 4.99 11.16 4.42 9.9 4.98C8.64 5.54 8.07 7.02 8.63 8.28L11.93 15.73L10.06 16.12C9.87 16.17 9.07 16.39 8.7 17.33L8 19.19L14.78 21.86C15.27 22.05 15.83 22.04 16.31 21.82L22.3 19.17C23.19 18.77 23.67 17.79 23.43 16.85L22.07 11.51C21.85 10.65 21.1 10.04 20.22 10ZM21.49 17.34L15.5 20L10.58 18.04L14.76 17.16L10.46 7.46C10.35 7.21 10.46 6.91 10.71 6.8C10.96 6.69 11.26 6.8 11.37 7.05L13.87 12.7L15.48 11.99L20.13 12L21.49 17.34ZM2.06 5.56L1 4.5L4.5 1L8 4.5L6.94 5.56L5.32 3.94C4.92852 5.48275 4.89439 7.09451 5.22018 8.65245C5.54598 10.2104 6.22312 11.6734 7.2 12.93L6.13 14C4.42501 11.8723 3.49721 9.22652 3.5 6.5C3.5 5.58 3.6 4.68 3.8 3.82L2.06 5.56Z"
        fill="white" fill-opacity="0.8" />
</svg>
    