<svg width="21" height="21" viewBox="0 0 21 21" fill="none" xmlns="http://www.w3.org/2000/svg">
    <circle cx="10.5" cy="10.5" r="10.5" fill="white" />
    <path fill-rule="evenodd" clip-rule="evenodd"
        d="M10.5 21C16.3212 21 21 16.3212 21 10.5C21 4.6788 16.3212 0 10.5 0C4.6788 0 0 4.6788 0 10.5C0 16.3212 4.6788 21 10.5 21ZM13.3875 12.159C13.3875 10.6302 12.4687 10.1052 10.6312 9.8889C9.31875 9.7125 9.05625 9.3639 9.05625 8.74755C9.05625 8.13645 9.49725 7.74375 10.3687 7.74375C11.1562 7.74375 11.5972 8.00625 11.8125 8.66145C11.8363 8.72443 11.8784 8.77883 11.9334 8.81758C11.9885 8.85634 12.0539 8.87766 12.1212 8.8788H12.8173C12.8577 8.88008 12.8978 8.87318 12.9354 8.8585C12.9729 8.84382 13.0071 8.82168 13.0359 8.79342C13.0646 8.76515 13.0874 8.73134 13.1027 8.69404C13.118 8.65674 13.1256 8.61672 13.125 8.5764V8.5302C12.9486 7.5663 12.1611 6.64755 11.1562 6.56145V5.59755C11.1562 5.4201 11.025 5.28885 10.8097 5.24895H10.2322C10.0537 5.24895 9.88995 5.3802 9.84375 5.59755V6.56145C8.53125 6.73995 7.65975 7.74375 7.65975 8.83995C7.65975 10.2826 8.53125 10.8475 10.3687 11.0701C11.5972 11.2864 11.9899 11.55 11.9899 12.2514C11.9899 12.9475 11.3736 13.4326 10.5462 13.4326C9.40485 13.4326 9.0111 12.9475 8.87985 12.2913C8.83995 12.1201 8.7087 12.0288 8.57745 12.0288H7.82985C7.78953 12.0282 7.74951 12.0358 7.71221 12.0511C7.67491 12.0664 7.6411 12.0892 7.61283 12.1179C7.58457 12.1467 7.56242 12.1809 7.54775 12.2184C7.53307 12.256 7.52617 12.2961 7.52745 12.3364V12.3826C7.6986 13.4725 8.4 14.2201 9.8448 14.4375V15.4077C9.8448 15.5862 9.97605 15.7038 10.1913 15.749H10.8213C10.9924 15.749 11.1111 15.6313 11.1573 15.4077V14.4364C12.4698 14.2201 13.3875 13.3413 13.3875 12.16M6.0816 15.4297C6.71587 16.0117 7.45926 16.4621 8.26875 16.7549C8.4 16.8462 8.53125 17.0173 8.53125 17.1486V17.7649C8.53125 17.85 8.53125 17.8962 8.4861 17.9361C8.4462 18.1125 8.26875 18.1986 8.09235 18.1125C6.50012 17.6055 5.11042 16.6052 4.12424 15.2563C3.13807 13.9073 2.60654 12.2797 2.60654 10.6087C2.60654 8.93768 3.13807 7.31001 4.12424 5.96105C5.11042 4.6121 6.50012 3.61181 8.09235 3.10485C8.1375 3.06495 8.2236 3.06495 8.26875 3.06495C8.44725 3.10485 8.53125 3.2361 8.53125 3.4125V4.0236C8.53125 4.2462 8.44725 4.37745 8.26875 4.4625C7.37416 4.78583 6.56174 5.30219 5.88921 5.9749C5.21668 6.64761 4.70054 7.46017 4.37745 8.35485C3.92613 9.56995 3.84719 10.892 4.15073 12.1522C4.45427 13.4123 5.12651 14.5534 6.0816 15.4297ZM12.5149 3.28125C12.5548 3.10485 12.7312 3.01875 12.9087 3.10485C14.1116 3.49556 15.2037 4.16804 16.0941 5.06627C16.9845 5.9645 17.6473 7.06248 18.0275 8.26875C19.34 12.4236 17.0625 16.8462 12.9087 18.1587C12.8625 18.1986 12.7774 18.1986 12.7312 18.1986C12.5548 18.1587 12.4687 18.0274 12.4687 17.85V17.241C12.4687 17.0173 12.5548 16.8861 12.7312 16.8C14.5236 16.1437 15.9674 14.7462 16.6236 12.9087C16.9237 12.1019 17.061 11.2436 17.0275 10.3835C16.994 9.52332 16.7904 8.67832 16.4285 7.89729C16.0666 7.11625 15.5535 6.41467 14.9189 5.83305C14.2843 5.25144 13.5408 4.80132 12.7312 4.5087C12.6 4.41735 12.4687 4.2462 12.4687 4.06875V3.45975C12.4687 3.36735 12.4687 3.32745 12.5149 3.28125Z"
        fill="#2775CA" />
</svg>
    