<svg width="322" height="322" viewBox="0 0 322 322" fill="none" xmlns="http://www.w3.org/2000/svg">
    <path
        d="M253.561 161.273C254.043 161.273 254.435 160.882 254.43 160.399C254.43 160.385 254.43 160.37 254.43 160.356C254.425 159.873 254.025 159.49 253.542 159.5C253.06 159.51 252.677 159.913 252.682 160.395C252.687 160.878 253.078 161.273 253.561 161.273Z"
        fill="#E9EDF0" />
    <path
        d="M274.129 161C274.524 161 274.844 160.68 274.842 160.285C274.839 159.89 274.515 159.574 274.12 159.578L259.513 159.762C259.173 159.766 258.902 160.045 258.904 160.385C258.906 160.725 259.181 161 259.521 161H274.129Z"
        fill="#E9EDF0" />
    <path
        d="M253.232 153.205C253.713 153.163 254.069 152.739 254.022 152.258C254.021 152.244 254.02 152.23 254.018 152.215C253.971 151.735 253.539 151.388 253.059 151.44C252.58 151.492 252.233 151.927 252.28 152.407C252.327 152.887 252.751 153.247 253.232 153.205Z"
        fill="#E9EDF0" />
    <path
        d="M273.698 151.14C274.092 151.106 274.383 150.759 274.346 150.365C274.309 149.972 273.959 149.685 273.566 149.725L259.031 151.181C258.693 151.215 258.446 151.516 258.478 151.854C258.51 152.193 258.808 152.443 259.146 152.413L273.698 151.14Z"
        fill="#E9EDF0" />
    <path
        d="M252.203 145.196C252.678 145.112 252.996 144.659 252.907 144.184C252.905 144.17 252.902 144.156 252.899 144.141C252.81 143.667 252.35 143.359 251.877 143.453C251.403 143.546 251.096 144.009 251.185 144.484C251.274 144.958 251.727 145.28 252.203 145.196Z"
        fill="#E9EDF0" />
    <path
        d="M272.41 141.355C272.799 141.287 273.059 140.916 272.988 140.527C272.917 140.139 272.543 139.883 272.155 139.957L257.802 142.674C257.468 142.737 257.249 143.059 257.31 143.393C257.371 143.728 257.69 143.951 258.025 143.892L272.41 141.355Z"
        fill="#E9EDF0" />
    <path
        d="M250.477 137.307C250.944 137.182 251.221 136.703 251.091 136.238C251.087 136.224 251.083 136.21 251.08 136.196C250.95 135.731 250.464 135.464 250.001 135.599C249.537 135.733 249.272 136.222 249.402 136.687C249.531 137.152 250.011 137.432 250.477 137.307Z"
        fill="#E9EDF0" />
    <path
        d="M270.274 131.72C270.655 131.618 270.882 131.226 270.777 130.845C270.673 130.464 270.277 130.242 269.897 130.349L255.836 134.307C255.509 134.399 255.318 134.739 255.408 135.066C255.498 135.394 255.836 135.589 256.164 135.501L270.274 131.72Z"
        fill="#E9EDF0" />
    <path
        d="M248.072 129.599C248.526 129.434 248.76 128.932 248.59 128.48C248.585 128.467 248.58 128.453 248.575 128.44C248.405 127.988 247.899 127.764 247.448 127.939C246.998 128.113 246.776 128.623 246.946 129.075C247.116 129.526 247.618 129.764 248.072 129.599Z"
        fill="#E9EDF0" />
    <path
        d="M267.306 122.308C267.677 122.173 267.869 121.762 267.732 121.392C267.594 121.021 267.181 120.835 266.812 120.975L253.149 126.143C252.831 126.263 252.671 126.618 252.789 126.937C252.907 127.255 253.26 127.42 253.579 127.304L267.306 122.308Z"
        fill="#E9EDF0" />
    <path
        d="M245.004 122.13C245.441 121.926 245.631 121.405 245.423 120.97C245.416 120.957 245.41 120.944 245.404 120.931C245.195 120.495 244.671 120.317 244.238 120.53C243.805 120.743 243.628 121.27 243.836 121.705C244.045 122.141 244.566 122.334 245.004 122.13Z"
        fill="#E9EDF0" />
    <path
        d="M263.529 113.19C263.887 113.023 264.042 112.597 263.873 112.24C263.704 111.883 263.276 111.734 262.92 111.905L249.76 118.244C249.454 118.392 249.325 118.759 249.471 119.066C249.616 119.373 249.982 119.507 250.29 119.363L263.529 113.19Z"
        fill="#E9EDF0" />
    <path
        d="M241.297 114.956C241.715 114.715 241.858 114.18 241.613 113.764C241.605 113.752 241.598 113.739 241.591 113.727C241.345 113.311 240.807 113.179 240.394 113.429C239.981 113.679 239.851 114.22 240.097 114.635C240.343 115.051 240.879 115.197 241.297 114.956Z"
        fill="#E9EDF0" />
    <path
        d="M258.972 104.436C259.315 104.238 259.432 103.801 259.232 103.46C259.033 103.119 258.594 103.007 258.254 103.209L245.696 110.671C245.404 110.845 245.308 111.222 245.48 111.515C245.651 111.809 246.028 111.909 246.322 111.74L258.972 104.436Z"
        fill="#E9EDF0" />
    <path
        d="M236.978 108.133C237.373 107.856 237.47 107.311 237.189 106.918C237.181 106.906 237.172 106.894 237.164 106.883C236.883 106.49 236.336 106.405 235.946 106.69C235.556 106.975 235.474 107.525 235.755 107.918C236.036 108.31 236.583 108.41 236.978 108.133Z"
        fill="#E9EDF0" />
    <path
        d="M253.669 96.1119C253.993 95.8853 254.072 95.4392 253.843 95.117C253.614 94.7948 253.167 94.7219 252.847 94.9525L240.987 103.481C240.711 103.679 240.648 104.064 240.845 104.341C241.042 104.618 241.425 104.685 241.703 104.491L253.669 96.1119Z"
        fill="#E9EDF0" />
    <path
        d="M232.081 101.712C232.451 101.402 232.499 100.85 232.186 100.484C232.176 100.473 232.167 100.462 232.157 100.451C231.843 100.084 231.291 100.048 230.927 100.365C230.564 100.683 230.53 101.238 230.844 101.605C231.158 101.971 231.711 102.023 232.081 101.712Z"
        fill="#E9EDF0" />
    <path
        d="M247.661 88.2821C247.964 88.0282 248.004 87.5769 247.748 87.2758C247.492 86.9748 247.04 86.9412 246.741 87.1989L235.669 96.7284C235.412 96.95 235.383 97.3383 235.603 97.5972C235.823 97.8561 236.211 97.8902 236.471 97.6718L247.661 88.2821Z"
        fill="#E9EDF0" />
    <path
        d="M226.643 95.7427C226.985 95.4014 226.985 94.8476 226.64 94.5097C226.63 94.4996 226.62 94.4895 226.609 94.4794C226.264 94.1416 225.711 94.1533 225.376 94.5016C225.042 94.8498 225.057 95.4054 225.401 95.7432C225.746 96.0811 226.302 96.0841 226.643 95.7427Z"
        fill="#E9EDF0" />
    <path
        d="M240.994 81.0058C241.274 80.7265 241.274 80.2734 240.993 79.9958C240.711 79.7182 240.258 79.7241 239.983 80.0069L229.784 90.4651C229.547 90.7083 229.552 91.0977 229.794 91.3364C230.035 91.5751 230.425 91.5753 230.665 91.335L240.994 81.0058Z"
        fill="#E9EDF0" />
    <path
        d="M220.705 90.2694C221.016 89.8996 220.968 89.348 220.595 89.0414C220.584 89.0322 220.573 89.023 220.561 89.0139C220.188 88.7075 219.638 88.7673 219.335 89.1434C219.033 89.5195 219.095 90.0717 219.468 90.3782C219.841 90.6847 220.395 90.6392 220.705 90.2694Z"
        fill="#E9EDF0" />
    <path
        d="M233.717 74.338C233.971 74.0354 233.932 73.5841 233.628 73.332C233.324 73.08 232.873 73.1253 232.623 73.4311L223.374 84.7384C223.159 85.0014 223.198 85.3888 223.46 85.6055C223.721 85.8223 224.109 85.7885 224.328 85.5282L233.717 74.338Z"
        fill="#E9EDF0" />
    <path
        d="M214.314 85.3352C214.591 84.9397 214.495 84.3943 214.097 84.1214C214.085 84.1133 214.073 84.1051 214.061 84.0969C213.663 83.8242 213.119 83.9318 212.851 84.3329C212.582 84.7339 212.693 85.2785 213.091 85.5513C213.489 85.8242 214.037 85.7306 214.314 85.3352Z"
        fill="#399F57" />
    <path
        d="M225.888 68.3303C226.114 68.0067 226.036 67.5605 225.711 67.3359C225.386 67.1114 224.94 67.1958 224.718 67.5222L216.49 79.5925C216.299 79.8732 216.371 80.2558 216.651 80.4489C216.931 80.642 217.314 80.5745 217.509 80.2962L225.888 68.3303Z"
        fill="#399F57" />
    <path
        d="M207.517 80.9762C207.759 80.5581 207.615 80.0231 207.195 79.7859C207.182 79.7789 207.17 79.7718 207.157 79.7647C206.737 79.5277 206.205 79.6823 205.972 80.1052C205.739 80.5281 205.897 81.061 206.318 81.2981C206.738 81.5352 207.276 81.3942 207.517 80.9762Z"
        fill="#399F57" />
    <path
        d="M217.564 63.0274C217.762 62.6853 217.645 62.2476 217.301 62.0522C216.958 61.8569 216.522 61.9798 216.329 62.3243L209.184 75.0658C209.018 75.3621 209.124 75.7369 209.419 75.9049C209.715 76.0729 210.091 75.9723 210.261 75.6781L217.564 63.0274Z"
        fill="#399F57" />
    <path
        d="M207.517 80.9763C207.759 80.5582 207.615 80.0232 207.195 79.7861C207.182 79.779 207.17 79.7719 207.157 79.7648C206.737 79.5278 206.205 79.6824 205.972 80.1053C205.739 80.5282 205.897 81.0611 206.318 81.2982C206.738 81.5353 207.276 81.3943 207.517 80.9763Z"
        fill="#399F57" />
    <path
        d="M217.564 63.0277C217.762 62.6856 217.645 62.2479 217.301 62.0525C216.958 61.8571 216.522 61.9801 216.329 62.3246L209.184 75.0661C209.018 75.3624 209.124 75.7372 209.419 75.9052C209.715 76.0732 210.091 75.9726 210.261 75.6784L217.564 63.0277Z"
        fill="#399F57" />
    <path
        d="M200.365 77.2272C200.569 76.7896 200.38 76.2692 199.941 76.0695C199.927 76.0636 199.914 76.0576 199.901 76.0516C199.462 75.8522 198.945 76.0525 198.75 76.4941C198.555 76.9357 198.759 77.4529 199.198 77.6524C199.638 77.8519 200.161 77.6647 200.365 77.2272Z"
        fill="#399F57" />
    <path
        d="M208.81 58.4707C208.977 58.1127 208.822 57.6869 208.463 57.5222C208.104 57.3575 207.68 57.5179 207.518 57.878L201.511 71.1937C201.371 71.5033 201.509 71.8675 201.818 72.0091C202.127 72.1508 202.493 72.0177 202.636 71.7098L208.81 58.4707Z"
        fill="#399F57" />
    <path
        d="M192.915 74.1146C193.08 73.6609 192.846 73.1589 192.391 72.9984C192.377 72.9936 192.364 72.9888 192.35 72.984C191.895 72.8236 191.398 73.0682 191.242 73.5251C191.086 73.982 191.334 74.4794 191.789 74.6399C192.245 74.8003 192.75 74.5682 192.915 74.1146Z"
        fill="#399F57" />
    <path
        d="M199.693 54.6938C199.828 54.3226 199.637 53.9119 199.264 53.7791C198.892 53.6464 198.484 53.8431 198.354 54.216L193.531 68.0045C193.418 68.3252 193.587 68.6759 193.907 68.7901C194.227 68.9043 194.58 68.7399 194.697 68.4206L199.693 54.6938Z"
        fill="#399F57" />
    <path
        d="M185.22 71.6636C185.345 71.1973 185.069 70.7176 184.601 70.5973C184.587 70.5938 184.573 70.5902 184.559 70.5866C184.092 70.4665 183.618 70.7534 183.503 71.2222C183.387 71.6909 183.677 72.1649 184.145 72.2851C184.613 72.4052 185.095 72.1299 185.22 71.6636Z"
        fill="#399F57" />
    <path
        d="M190.279 51.726C190.382 51.3444 190.155 50.9519 189.773 50.8521C189.391 50.7522 189.001 50.9838 188.904 51.3667L185.301 65.523C185.217 65.8523 185.416 66.1869 185.745 66.2728C186.074 66.3587 186.411 66.1641 186.499 65.8359L190.279 51.726Z"
        fill="#399F57" />
    <path
        d="M177.342 69.8925C177.426 69.417 177.108 68.9633 176.632 68.8842C176.618 68.8818 176.604 68.8795 176.589 68.8771C176.113 68.7983 175.666 69.1254 175.592 69.6024C175.518 70.0794 175.849 70.5263 176.325 70.6052C176.801 70.6842 177.258 70.3678 177.342 69.8925Z"
        fill="#399F57" />
    <path
        d="M180.645 49.5898C180.713 49.2008 180.454 48.8296 180.064 48.7634C179.675 48.6972 179.307 48.9619 179.243 49.3518L176.888 63.7683C176.833 64.1036 177.06 64.4196 177.395 64.4765C177.73 64.5334 178.049 64.3102 178.108 63.9756L180.645 49.5898Z"
        fill="#399F57" />
    <path
        d="M169.339 68.8154C169.381 68.3345 169.025 67.9101 168.544 67.8728C168.53 67.8717 168.515 67.8706 168.501 67.8695C168.019 67.8324 167.603 68.1972 167.571 68.6789C167.538 69.1605 167.907 69.5769 168.388 69.6141C168.869 69.6512 169.297 69.2962 169.339 68.8154Z"
        fill="#399F57" />
    <path
        d="M170.86 48.302C170.894 47.9084 170.603 47.5612 170.209 47.5293C169.816 47.4973 169.472 47.793 169.443 48.1869L168.353 62.7539C168.327 63.0927 168.581 63.3877 168.92 63.4152C169.259 63.4427 169.557 63.1925 169.587 62.8541L170.86 48.302Z"
        fill="#399F57" />
    <path
        d="M161.273 68.4389C161.273 67.9562 160.881 67.5644 160.399 67.5692C160.384 67.5693 160.37 67.5695 160.355 67.5697C159.873 67.5747 159.489 67.9744 159.499 68.4571C159.509 68.9397 159.912 69.3224 160.395 69.3175C160.878 69.3125 161.273 68.9216 161.273 68.4389Z"
        fill="#399F57" />
    <path
        d="M161 47.8711C161 47.4761 160.68 47.1556 160.284 47.1581C159.889 47.1605 159.573 47.485 159.578 47.88L159.762 62.4866C159.766 62.8263 160.045 63.0981 160.385 63.0959C160.724 63.0938 161 62.8186 161 62.4788L161 47.8711Z"
        fill="#399F57" />
    <path
        d="M153.205 68.7674C153.163 68.2865 152.739 67.9303 152.258 67.9772C152.244 67.9786 152.23 67.98 152.215 67.9815C151.735 68.0286 151.388 68.4602 151.44 68.9401C151.492 69.42 151.927 69.7662 152.407 69.7192C152.887 69.6722 153.247 69.2483 153.205 68.7674Z"
        fill="#399F57" />
    <path
        d="M151.14 48.3017C151.106 47.9082 150.759 47.6168 150.366 47.6537C149.972 47.6906 149.686 48.0414 149.725 48.4345L151.181 62.9695C151.215 63.3076 151.516 63.554 151.855 63.5222C152.193 63.4905 152.443 63.1923 152.414 62.8539L151.14 48.3017Z"
        fill="#399F57" />
    <path
        d="M145.196 69.798C145.112 69.3225 144.658 69.0047 144.184 69.0932C144.17 69.0959 144.155 69.0986 144.141 69.1012C143.667 69.19 143.359 69.6502 143.452 70.1238C143.546 70.5974 144.009 70.9043 144.484 70.8156C144.958 70.7269 145.279 70.2734 145.196 69.798Z"
        fill="#399F57" />
    <path
        d="M141.355 49.5898C141.287 49.2007 140.916 48.9407 140.527 49.0117C140.139 49.0828 139.883 49.4573 139.957 49.8454L142.674 64.1982C142.737 64.532 143.059 64.7512 143.393 64.6901C143.728 64.629 143.951 64.3101 143.892 63.9756L141.355 49.5898Z"
        fill="#399F57" />
    <path
        d="M137.307 71.5223C137.182 71.056 136.703 70.7789 136.238 70.9085C136.224 70.9123 136.21 70.9162 136.196 70.9201C135.731 71.0499 135.465 71.5352 135.599 71.9989C135.734 72.4625 136.222 72.7278 136.687 72.5981C137.152 72.4684 137.432 71.9886 137.307 71.5223Z"
        fill="#399F57" />
    <path
        d="M131.72 51.7258C131.618 51.3442 131.225 51.1175 130.844 51.2221C130.463 51.3268 130.242 51.722 130.349 52.1023L134.307 66.1637C134.399 66.4907 134.738 66.681 135.066 66.591C135.394 66.501 135.588 66.1639 135.501 65.8357L131.72 51.7258Z"
        fill="#399F57" />
    <path
        d="M129.599 73.9278C129.434 73.4742 128.932 73.2398 128.48 73.4095C128.466 73.4146 128.453 73.4196 128.439 73.4247C127.988 73.5946 127.764 74.1013 127.939 74.5514C128.113 75.0015 128.622 75.2233 129.074 75.0536C129.526 74.8838 129.764 74.3814 129.599 73.9278Z"
        fill="#399F57" />
    <path
        d="M122.307 54.6936C122.172 54.3224 121.762 54.1308 121.391 54.2682C121.021 54.4057 120.835 54.8187 120.974 55.1882L126.143 68.8511C126.263 69.1689 126.618 69.3289 126.936 69.2107C127.255 69.0925 127.42 68.7396 127.303 68.4204L122.307 54.6936Z"
        fill="#399F57" />
    <path
        d="M122.129 76.9961C121.925 76.5586 121.405 76.3689 120.97 76.5773C120.957 76.5835 120.944 76.5898 120.931 76.596C120.495 76.8046 120.317 77.3288 120.53 77.7621C120.743 78.1953 121.27 78.3718 121.705 78.1633C122.141 77.9549 122.333 77.4336 122.129 76.9961Z"
        fill="#399F57" />
    <path
        d="M113.189 58.4706C113.022 58.1125 112.597 57.9574 112.24 58.1266C111.883 58.2958 111.733 58.7235 111.905 59.0794L118.244 72.2399C118.392 72.546 118.759 72.6744 119.066 72.5289C119.373 72.3834 119.507 72.0176 119.363 71.7097L113.189 58.4706Z"
        fill="#399F57" />
    <path
        d="M114.957 80.7035C114.715 80.2854 114.18 80.1418 113.765 80.3873C113.752 80.3947 113.74 80.402 113.727 80.4094C113.312 80.6551 113.18 81.1929 113.43 81.6059C113.68 82.019 114.22 82.1489 114.636 81.9032C115.051 81.6576 115.198 81.1215 114.957 80.7035Z"
        fill="#399F57" />
    <path
        d="M104.436 63.0276C104.238 62.6855 103.801 62.5681 103.46 62.7678C103.119 62.9674 103.007 63.4066 103.209 63.7462L110.671 76.3041C110.845 76.5961 111.222 76.692 111.515 76.5203C111.809 76.3486 111.909 75.9725 111.74 75.6783L104.436 63.0276Z"
        fill="#399F57" />
    <path
        d="M114.957 80.7035C114.715 80.2854 114.18 80.1418 113.765 80.3873C113.752 80.3947 113.74 80.402 113.727 80.4094C113.312 80.6551 113.18 81.1929 113.43 81.6059C113.68 82.019 114.22 82.1489 114.636 81.9032C115.051 81.6576 115.198 81.1215 114.957 80.7035Z"
        fill="#399F57" />
    <path
        d="M104.436 63.0276C104.238 62.6855 103.801 62.5681 103.46 62.7678C103.119 62.9674 103.007 63.4065 103.209 63.7462L110.671 76.304C110.845 76.5961 111.222 76.692 111.515 76.5203C111.809 76.3486 111.909 75.9725 111.74 75.6783L104.436 63.0276Z"
        fill="#399F57" />
    <path
        d="M108.133 85.022C107.856 84.6266 107.311 84.5301 106.919 84.8109C106.907 84.8193 106.895 84.8277 106.883 84.8362C106.491 85.1172 106.406 85.6644 106.691 86.0541C106.976 86.4438 107.526 86.5261 107.918 86.2452C108.311 85.9643 108.41 85.4174 108.133 85.022Z"
        fill="#399F57" />
    <path
        d="M96.1122 68.3302C95.8856 68.0066 95.4395 67.9278 95.1173 68.1564C94.7951 68.385 94.7222 68.8322 94.9529 69.1529L103.481 81.0126C103.68 81.2885 104.064 81.3511 104.341 81.1545C104.618 80.9579 104.686 80.5745 104.491 80.2962L96.1122 68.3302Z"
        fill="#399F57" />
    <path
        d="M101.712 89.9186C101.402 89.5488 100.85 89.5002 100.484 89.8142C100.473 89.8236 100.462 89.833 100.451 89.8424C100.084 90.1566 100.048 90.7091 100.366 91.0725C100.683 91.4358 101.238 91.4699 101.605 91.1559C101.971 90.8418 102.023 90.2884 101.712 89.9186Z"
        fill="#399F57" />
    <path
        d="M88.2824 74.3381C88.0285 74.0355 87.5772 73.9959 87.2761 74.2517C86.9751 74.5075 86.9414 74.9593 87.1992 75.2588L96.7287 86.3301C96.9503 86.5875 97.3386 86.6165 97.5975 86.3965C97.8564 86.1764 97.8905 85.7886 97.6721 85.5283L88.2824 74.3381Z"
        fill="#399F57" />
    <path
        d="M95.7424 95.3565C95.401 95.0152 94.8473 95.0149 94.5094 95.3596C94.4993 95.3699 94.4892 95.3802 94.479 95.3906C94.1413 95.7355 94.153 96.2891 94.5012 96.6234C94.8495 96.9577 95.4051 96.9433 95.7429 96.5985C96.0807 96.2536 96.0837 95.6979 95.7424 95.3565Z"
        fill="#399F57" />
    <path
        d="M81.0058 81.0059C80.7265 80.7266 80.2734 80.7264 79.9958 81.0075C79.7182 81.2886 79.7241 81.7416 80.0069 82.0174L90.4651 92.216C90.7084 92.4532 91.0977 92.4482 91.3364 92.2065C91.5751 91.9647 91.5753 91.5753 91.335 91.3351L81.0058 81.0059Z"
        fill="#399F57" />
    <path
        d="M90.2699 101.294C89.9001 100.983 89.3484 101.031 89.0419 101.404C89.0327 101.415 89.0235 101.426 89.0143 101.438C88.7079 101.811 88.7678 102.361 89.1439 102.664C89.52 102.966 90.0722 102.904 90.3787 102.531C90.6852 102.158 90.6397 101.604 90.2699 101.294Z"
        fill="#399F57" />
    <path
        d="M74.3386 88.282C74.036 88.0281 73.5847 88.0674 73.3326 88.3716C73.0806 88.6759 73.1259 89.1267 73.4317 89.3768L84.739 98.6251C85.002 98.8402 85.3894 98.8012 85.6061 98.5396C85.8229 98.278 85.7891 97.8901 85.5288 97.6717L74.3386 88.282Z"
        fill="#399F57" />
    <path
        d="M85.3351 107.686C84.9397 107.409 84.3943 107.505 84.1213 107.903C84.1132 107.915 84.105 107.927 84.0968 107.939C83.8241 108.337 83.9317 108.88 84.3328 109.149C84.7338 109.418 85.2785 109.307 85.5513 108.909C85.8241 108.511 85.7305 107.963 85.3351 107.686Z"
        fill="#399F57" />
    <path
        d="M68.33 96.1122C68.0064 95.8856 67.5602 95.9642 67.3356 96.2892C67.1111 96.6142 67.1955 97.0593 67.522 97.2818L79.5923 105.509C79.873 105.701 80.2555 105.628 80.4486 105.349C80.6417 105.069 80.5743 104.686 80.296 104.491L68.33 96.1122Z"
        fill="#399F57" />
    <path
        d="M80.9762 114.483C80.5581 114.242 80.0232 114.385 79.786 114.805C79.7789 114.818 79.7718 114.831 79.7647 114.843C79.5277 115.264 79.6823 115.796 80.1052 116.028C80.5281 116.261 81.0611 116.103 81.2981 115.683C81.5352 115.262 81.3943 114.725 80.9762 114.483Z"
        fill="#399F57" />
    <path
        d="M63.0274 104.436C62.6853 104.238 62.2476 104.355 62.0522 104.699C61.8568 105.042 61.9797 105.478 62.3243 105.671L75.0658 112.816C75.3621 112.982 75.7369 112.876 75.9049 112.581C76.0729 112.286 75.9723 111.909 75.678 111.74L63.0274 104.436Z"
        fill="#399F57" />
    <path
        d="M77.2266 121.635C76.7891 121.431 76.2686 121.62 76.069 122.059C76.063 122.073 76.0571 122.086 76.0511 122.099C75.8517 122.538 76.052 123.055 76.4936 123.25C76.9352 123.445 77.4523 123.241 77.6519 122.802C77.8514 122.362 77.6641 121.839 77.2266 121.635Z"
        fill="#399F57" />
    <path
        d="M58.4707 113.19C58.1127 113.023 57.6869 113.178 57.5222 113.537C57.3575 113.896 57.5179 114.32 57.878 114.482L71.1937 120.489C71.5033 120.628 71.8675 120.49 72.0091 120.182C72.1508 119.873 72.0177 119.507 71.7098 119.363L58.4707 113.19Z"
        fill="#399F57" />
    <path
        d="M74.1152 129.086C73.6615 128.921 73.1595 129.154 72.999 129.61C72.9942 129.623 72.9894 129.637 72.9846 129.651C72.8243 130.106 73.0688 130.603 73.5257 130.758C73.9826 130.914 74.4801 130.666 74.6405 130.211C74.801 129.756 74.5688 129.251 74.1152 129.086Z"
        fill="#399F57" />
    <path
        d="M54.6941 122.308C54.3229 122.173 53.9122 122.364 53.7794 122.736C53.6466 123.108 53.8434 123.516 54.2163 123.647L68.0048 128.47C68.3254 128.582 68.6762 128.413 68.7904 128.093C68.9045 127.773 68.7401 127.42 68.4209 127.304L54.6941 122.308Z"
        fill="#399F57" />
    <path
        d="M71.6637 136.78C71.1974 136.655 70.7177 136.931 70.5974 137.399C70.5938 137.413 70.5903 137.427 70.5867 137.441C70.4666 137.908 70.7535 138.382 71.2223 138.497C71.691 138.613 72.165 138.322 72.2852 137.855C72.4053 137.387 72.13 136.905 71.6637 136.78Z"
        fill="#399F57" />
    <path
        d="M51.7263 131.72C51.3447 131.618 50.9522 131.844 50.8524 132.226C50.7525 132.609 50.9841 132.998 51.367 133.095L65.5233 136.699C65.8526 136.782 66.1872 136.583 66.2731 136.255C66.359 135.926 66.1644 135.589 65.8363 135.501L51.7263 131.72Z"
        fill="#399F57" />
    <path
        d="M69.8927 144.658C69.4173 144.574 68.9635 144.892 68.8845 145.368C68.8821 145.382 68.8797 145.396 68.8774 145.411C68.7986 145.887 69.1257 146.334 69.6027 146.408C70.0797 146.482 70.5266 146.151 70.6055 145.675C70.6845 145.199 70.3681 144.742 69.8927 144.658Z"
        fill="#399F57" />
    <path
        d="M49.5898 141.355C49.2008 141.287 48.8296 141.546 48.7634 141.936C48.6972 142.325 48.9619 142.693 49.3518 142.757L63.7683 145.113C64.1036 145.167 64.4196 144.94 64.4765 144.605C64.5334 144.27 64.3102 143.951 63.9756 143.892L49.5898 141.355Z"
        fill="#399F57" />
    <path
        d="M68.8148 152.661C68.3339 152.619 67.9095 152.975 67.8723 153.456C67.8712 153.47 67.87 153.485 67.8689 153.499C67.8319 153.98 68.1967 154.397 68.6784 154.429C69.16 154.462 69.5764 154.093 69.6135 153.612C69.6507 153.131 69.2957 152.703 68.8148 152.661Z"
        fill="#399F57" />
    <path
        d="M48.3016 151.14C47.908 151.106 47.5609 151.397 47.5289 151.791C47.4969 152.184 47.7926 152.528 48.1866 152.557L62.7536 153.647C63.0924 153.673 63.3874 153.419 63.4149 153.08C63.4423 152.741 63.1922 152.443 62.8537 152.413L48.3016 151.14Z"
        fill="#399F57" />
    <path
        d="M68.4391 160.727C67.9563 160.727 67.5645 161.118 67.5693 161.601C67.5695 161.615 67.5697 161.63 67.5698 161.644C67.5749 162.127 67.9746 162.51 68.4572 162.5C68.9398 162.49 69.3226 162.087 69.3176 161.605C69.3127 161.122 68.9218 160.727 68.4391 160.727Z"
        fill="#399F57" />
    <path
        d="M47.8712 161C47.4761 161 47.1556 161.32 47.1581 161.715C47.1606 162.11 47.4851 162.426 47.8801 162.422L62.4867 162.238C62.8264 162.234 63.0981 161.955 63.096 161.615C63.0939 161.275 62.8186 161 62.4789 161L47.8712 161Z"
        fill="#399F57" />
</svg>
    