<svg width="2387" height="2577" viewBox="0 0 2387 2577" fill="none"
    xmlns="http://www.w3.org/2000/svg">
    <g opacity="0.5" filter="url(#filter0_f_43_653)">
        <path
            d="M1291.46 1684.89C1291.46 1714.33 1308.82 1724.12 1292.89 1724.12C1276.95 1724.12 1264.03 1700.26 1264.03 1670.82C1264.03 1641.38 1289.9 1604.84 1305.84 1604.84C1321.77 1604.84 1291.46 1655.46 1291.46 1684.89Z"
            fill="white" />
    </g>
    <g opacity="0.2" filter="url(#filter1_f_43_653)">
        <ellipse cx="309.025" cy="414.651" rx="309.025" ry="414.651"
            transform="matrix(-0.220517 -0.975383 0.953094 -0.302674 1146.24 1901.01)"
            fill="#E5320F" />
    </g>
    <g filter="url(#filter2_f_43_653)">
        <path
            d="M543 1627.17C543 1359.59 660.973 1142.67 806.5 1142.67C917.832 1142.67 975.428 1196.59 1014.02 1376.06C1025.88 1431.18 1070 1564.29 1070 1627.17C1070 1894.75 952.027 2111.67 806.5 2111.67C660.973 2111.67 543 1894.75 543 1627.17Z"
            fill="#340C00" />
    </g>
    <g filter="url(#filter3_f_43_653)">
        <path
            d="M1582.4 1582.76C1778.09 1716.66 1877.79 1946.2 1805.08 2095.45C1732.37 2244.71 1514.8 2257.15 1319.11 2123.24C1123.42 1989.34 836.162 1744.45 908.868 1595.2C932.472 1546.75 846.273 1428.51 921.407 1411.41C1077.71 1375.82 1450.24 1492.32 1582.4 1582.76Z"
            fill="#E5320F" />
    </g>
    <g opacity="0.2" filter="url(#filter4_f_43_653)">
        <path
            d="M1281.06 1667.34C1235.76 1867.72 1110.83 2002.15 1002.03 1967.6C893.227 1933.05 1061.07 1678.84 1106.37 1478.46C1151.68 1278.08 1057.28 1207.4 1166.09 1241.95C1274.89 1276.5 1326.36 1466.96 1281.06 1667.34Z"
            fill="white" />
    </g>
    <g opacity="0.2" filter="url(#filter5_f_43_653)">
        <path
            d="M1885.83 1033.04C1815.6 1343.68 1621.93 1552.09 1453.26 1498.52C1284.59 1444.96 1544.79 1050.88 1615.02 740.229C1685.25 429.582 1538.92 320.008 1707.59 373.573C1876.26 427.139 1956.07 722.391 1885.83 1033.04Z"
            fill="#EA9924" />
    </g>
    <g filter="url(#filter6_f_43_653)">
        <path
            d="M1114.62 1947.27C1114.62 2108.91 1209.97 2162.67 1122.46 2162.67C1034.94 2162.67 964 2031.64 964 1870C964 1708.36 1106.06 1507.67 1193.57 1507.67C1281.09 1507.67 1114.62 1785.63 1114.62 1947.27Z"
            fill="white" />
    </g>
    <g opacity="0.64" filter="url(#filter7_f_43_653)">
        <ellipse cx="1568.5" cy="1643.67" rx="136" ry="177.5" transform="rotate(90 1568.5 1643.67)"
            fill="#0D0300" />
    </g>
    <g opacity="0.2" filter="url(#filter8_f_43_653)">
        <path
            d="M1445.66 1591C1443.8 1707.11 1391.34 1800.08 1328.49 1798.65C1265.63 1797.23 1216.19 1701.95 1218.05 1585.84C1219.91 1469.73 1272.37 1376.75 1335.23 1378.18C1398.08 1379.6 1447.52 1474.89 1445.66 1591Z"
            fill="#E5320F" />
        <path
            d="M1547.64 1406.54C1577.26 1467.54 1591.72 1548.47 1537.27 1585.84C1482.83 1623.21 1380.11 1602.86 1350.49 1541.87C1320.87 1480.88 1340.99 1401.14 1395.44 1363.77C1449.88 1326.4 1518.02 1345.55 1547.64 1406.54Z"
            fill="#E5320F" />
    </g>
    <g filter="url(#filter9_f_43_653)">
        <path
            d="M1077.16 1836.69C1077.16 1892.95 1110.81 1911.67 1079.93 1911.67C1049.04 1911.67 1024 1866.06 1024 1809.79C1024 1753.53 1074.14 1683.67 1105.03 1683.67C1135.91 1683.67 1077.16 1780.43 1077.16 1836.69Z"
            fill="white" />
    </g>
    <g opacity="0.2" filter="url(#filter10_f_43_653)">
        <ellipse cx="1001" cy="1410.67" rx="188" ry="97" fill="#E5320F" />
    </g>
    <g opacity="0.6" filter="url(#filter11_f_43_653)">
        <ellipse cx="995.5" cy="1515.17" rx="200.5" ry="104.5" fill="#EA9924" />
    </g>
    <g opacity="0.6" filter="url(#filter12_f_43_653)">
        <path
            d="M800.626 1656.91C737.325 1936.9 562.769 2124.74 410.743 2076.46C258.717 2028.18 493.24 1672.99 556.54 1393C619.84 1113.01 487.948 1014.25 639.974 1062.53C792 1110.81 863.926 1376.92 800.626 1656.91Z"
            fill="#0D0300" />
    </g>
    <g opacity="0.2" filter="url(#filter13_f_43_653)">
        <circle cx="1891.5" cy="1107.5" r="249.5" fill="#FF3B10" />
    </g>
    <defs>
        <filter id="filter0_f_43_653" x="1104.03" y="1444.84" width="366.438" height="439.283"
            filterUnits="userSpaceOnUse" color-interpolation-filters="sRGB">
            <feFlood flood-opacity="0" result="BackgroundImageFix" />
            <feBlend mode="normal" in="SourceGraphic" in2="BackgroundImageFix" result="shape" />
            <feGaussianBlur stdDeviation="80" result="effect1_foregroundBlur_43_653" />
        </filter>
        <filter id="filter1_f_43_653" x="712.195" y="787.497" width="1522.2" height="1373.18"
            filterUnits="userSpaceOnUse" color-interpolation-filters="sRGB">
            <feFlood flood-opacity="0" result="BackgroundImageFix" />
            <feBlend mode="normal" in="SourceGraphic" in2="BackgroundImageFix" result="shape" />
            <feGaussianBlur stdDeviation="180" result="effect1_foregroundBlur_43_653" />
        </filter>
        <filter id="filter2_f_43_653" x="183" y="782.668" width="1247" height="1689"
            filterUnits="userSpaceOnUse" color-interpolation-filters="sRGB">
            <feFlood flood-opacity="0" result="BackgroundImageFix" />
            <feBlend mode="normal" in="SourceGraphic" in2="BackgroundImageFix" result="shape" />
            <feGaussianBlur stdDeviation="180" result="effect1_foregroundBlur_43_653" />
        </filter>
        <filter id="filter3_f_43_653" x="529.954" y="1044.84" width="1658.89" height="1531.22"
            filterUnits="userSpaceOnUse" color-interpolation-filters="sRGB">
            <feFlood flood-opacity="0" result="BackgroundImageFix" />
            <feBlend mode="normal" in="SourceGraphic" in2="BackgroundImageFix" result="shape" />
            <feGaussianBlur stdDeviation="180" result="effect1_foregroundBlur_43_653" />
        </filter>
        <filter id="filter4_f_43_653" x="605.973" y="873.548" width="1051.54" height="1459.47"
            filterUnits="userSpaceOnUse" color-interpolation-filters="sRGB">
            <feFlood flood-opacity="0" result="BackgroundImageFix" />
            <feBlend mode="normal" in="SourceGraphic" in2="BackgroundImageFix" result="shape" />
            <feGaussianBlur stdDeviation="180" result="effect1_foregroundBlur_43_653" />
        </filter>
        <filter id="filter5_f_43_653" x="1037.36" y="0.545898" width="1233.97" height="1866.37"
            filterUnits="userSpaceOnUse" color-interpolation-filters="sRGB">
            <feFlood flood-opacity="0" result="BackgroundImageFix" />
            <feBlend mode="normal" in="SourceGraphic" in2="BackgroundImageFix" result="shape" />
            <feGaussianBlur stdDeviation="180" result="effect1_foregroundBlur_43_653" />
        </filter>
        <filter id="filter6_f_43_653" x="604" y="1147.67" width="975" height="1375"
            filterUnits="userSpaceOnUse" color-interpolation-filters="sRGB">
            <feFlood flood-opacity="0" result="BackgroundImageFix" />
            <feBlend mode="normal" in="SourceGraphic" in2="BackgroundImageFix" result="shape" />
            <feGaussianBlur stdDeviation="180" result="effect1_foregroundBlur_43_653" />
        </filter>
        <filter id="filter7_f_43_653" x="911" y="1027.67" width="1315" height="1232"
            filterUnits="userSpaceOnUse" color-interpolation-filters="sRGB">
            <feFlood flood-opacity="0" result="BackgroundImageFix" />
            <feBlend mode="normal" in="SourceGraphic" in2="BackgroundImageFix" result="shape" />
            <feGaussianBlur stdDeviation="240" result="effect1_foregroundBlur_43_653" />
        </filter>
        <filter id="filter8_f_43_653" x="738" y="864.668" width="1316" height="1414"
            filterUnits="userSpaceOnUse" color-interpolation-filters="sRGB">
            <feFlood flood-opacity="0" result="BackgroundImageFix" />
            <feBlend mode="normal" in="SourceGraphic" in2="BackgroundImageFix" result="shape" />
            <feGaussianBlur stdDeviation="240" result="effect1_foregroundBlur_43_653" />
        </filter>
        <filter id="filter9_f_43_653" x="864" y="1523.67" width="410" height="548"
            filterUnits="userSpaceOnUse" color-interpolation-filters="sRGB">
            <feFlood flood-opacity="0" result="BackgroundImageFix" />
            <feBlend mode="normal" in="SourceGraphic" in2="BackgroundImageFix" result="shape" />
            <feGaussianBlur stdDeviation="80" result="effect1_foregroundBlur_43_653" />
        </filter>
        <filter id="filter10_f_43_653" x="633" y="1133.67" width="736" height="554"
            filterUnits="userSpaceOnUse" color-interpolation-filters="sRGB">
            <feFlood flood-opacity="0" result="BackgroundImageFix" />
            <feBlend mode="normal" in="SourceGraphic" in2="BackgroundImageFix" result="shape" />
            <feGaussianBlur stdDeviation="90" result="effect1_foregroundBlur_43_653" />
        </filter>
        <filter id="filter11_f_43_653" x="615" y="1230.67" width="761" height="569"
            filterUnits="userSpaceOnUse" color-interpolation-filters="sRGB">
            <feFlood flood-opacity="0" result="BackgroundImageFix" />
            <feBlend mode="normal" in="SourceGraphic" in2="BackgroundImageFix" result="shape" />
            <feGaussianBlur stdDeviation="90" result="effect1_foregroundBlur_43_653" />
        </filter>
        <filter id="filter12_f_43_653" x="0.363525" y="690.788" width="1183.25" height="1753.23"
            filterUnits="userSpaceOnUse" color-interpolation-filters="sRGB">
            <feFlood flood-opacity="0" result="BackgroundImageFix" />
            <feBlend mode="normal" in="SourceGraphic" in2="BackgroundImageFix" result="shape" />
            <feGaussianBlur stdDeviation="180" result="effect1_foregroundBlur_43_653" />
        </filter>
        <filter id="filter13_f_43_653" x="1396.2" y="612.2" width="990.6" height="990.6"
            filterUnits="userSpaceOnUse" color-interpolation-filters="sRGB">
            <feFlood flood-opacity="0" result="BackgroundImageFix" />
            <feBlend mode="normal" in="SourceGraphic" in2="BackgroundImageFix" result="shape" />
            <feGaussianBlur stdDeviation="122.9" result="effect1_foregroundBlur_43_653" />
        </filter>
    </defs>
</svg>
    