<svg width="202" height="197" viewBox="0 0 202 197" fill="none" xmlns="http://www.w3.org/2000/svg">
<g style="mix-blend-mode:soft-light">
<path d="M56.0094 24.3166C55.6485 22.8566 57.4214 21.833 58.5054 22.8756L90.9732 54.1037C91.3385 54.4551 91.5017 54.9673 91.4069 55.4653L87.8274 74.273C87.6561 75.1731 86.725 75.7106 85.8599 75.4089L67.7821 69.105C67.3035 68.9381 66.9415 68.5408 66.8199 68.0487L56.0094 24.3166Z" fill="white" stroke="white" stroke-width="5"/>
<path d="M142.535 174.181C143.619 175.224 145.392 174.2 145.031 172.74L134.22 129.008C134.099 128.516 133.737 128.119 133.258 127.952L115.18 121.648C114.315 121.346 113.384 121.884 113.213 122.784L109.633 141.592C109.538 142.09 109.702 142.602 110.067 142.953L142.535 174.181Z" fill="white" stroke="white" stroke-width="5"/>
<path d="M13.9947 99.9667C12.5498 99.5492 12.5498 97.502 13.9947 97.0845L57.2729 84.5807C57.7599 84.44 58.2851 84.5548 58.669 84.8858L73.1672 97.3897C73.861 97.9881 73.861 99.0632 73.1672 99.6615L58.6689 112.165C58.2851 112.496 57.76 112.611 57.2729 112.471L13.9947 99.9667Z" fill="white" stroke="white" stroke-width="5"/>
<path d="M187.045 99.9667C188.49 99.5492 188.49 97.502 187.045 97.0845L143.767 84.5807C143.28 84.44 142.755 84.5548 142.371 84.8858L127.873 97.3897C127.179 97.9881 127.179 99.0632 127.873 99.6615L142.371 112.165C142.755 112.496 143.28 112.611 143.767 112.471L187.045 99.9667Z" fill="white" stroke="white" stroke-width="5"/>
<path d="M142.535 22.8743C143.619 21.8317 145.392 22.8553 145.031 24.3153L134.221 68.0473C134.099 68.5395 133.737 68.9368 133.258 69.1037L115.181 75.4076C114.316 75.7093 113.385 75.1718 113.213 74.2717L109.634 55.464C109.539 54.966 109.702 54.4538 110.067 54.1024L142.535 22.8743Z" fill="white" stroke="white" stroke-width="5"/>
<path d="M56.0094 172.738C55.6485 174.198 57.4214 175.221 58.5054 174.179L90.9732 142.951C91.3385 142.599 91.5017 142.087 91.4069 141.589L87.8274 122.781C87.6561 121.881 86.725 121.344 85.8599 121.645L67.7821 127.949C67.3035 128.116 66.9415 128.514 66.8199 129.006L56.0094 172.738Z" fill="white" stroke="white" stroke-width="5"/>
<circle cx="100.52" cy="98.5266" r="13.8637" fill="white" stroke="white" stroke-width="5"/>
<path d="M100.929 3L100.929 45.4963M100.929 45.4963L111.144 35.1942M100.929 45.4963L90.7134 35.1942M111.144 18.1956L100.929 28.4978L90.7134 18.1956" stroke="white" stroke-width="5" stroke-linecap="round" stroke-linejoin="round"/>
<path d="M100.929 194.234L100.929 151.737M100.929 151.737L111.144 162.039M100.929 151.737L90.7134 162.039M111.144 179.038L100.929 168.736L90.7134 179.038" stroke="white" stroke-width="5" stroke-linecap="round" stroke-linejoin="round"/>
<path d="M183.735 50.8093L146.932 72.0574M146.932 72.0574L160.962 75.7532M146.932 72.0574L150.746 58.0595M175.683 67.2539L161.653 63.5582L165.468 49.5603" stroke="white" stroke-width="5" stroke-linecap="round" stroke-linejoin="round"/>
<path d="M18.1223 146.425L54.9251 125.177M54.9251 125.177L51.1109 139.175M54.9251 125.177L40.8955 121.481M36.3898 147.674L40.204 133.676L26.1743 129.98" stroke="white" stroke-width="5" stroke-linecap="round" stroke-linejoin="round"/>
<path d="M183.736 146.427L146.933 125.179M146.933 125.179L150.747 139.176M146.933 125.179L160.963 121.483M165.468 147.676L161.654 133.678L175.684 129.982" stroke="white" stroke-width="5" stroke-linecap="round" stroke-linejoin="round"/>
<path d="M18.1231 50.8087L54.926 72.0568M54.926 72.0568L40.8963 75.7526M54.926 72.0568L51.1118 58.0589M26.1752 67.2533L40.2048 63.5576L36.3906 49.5597" stroke="white" stroke-width="5" stroke-linecap="round" stroke-linejoin="round"/>
</g>
</svg>
