<svg width="100%" viewBox="0 0 102 68" fill="none" xmlns="http://www.w3.org/2000/svg">
<g clip-path="url(#clip0_628_6581)">
<path d="M96.4972 39.7391C96.4972 39.7391 69.4784 1.47407 47.626 4.20606C37.4988 5.47123 32.8054 15.6292 13.8386 41.965C9.69349 47.7215 28.2293 40.8921 33.0287 37.7744C33.0287 37.7744 28.3846 51.4436 30.9033 53.1229C35.6065 56.2607 99.8634 45.7696 96.4971 39.7373L96.4972 39.7391Z" fill="black"/>
<path d="M94.0976 38.9263C94.0976 38.9263 68.0194 2.91649 48.2943 5.45187C38.1723 6.75382 36.4844 14.6397 15.4423 41.4374C11.052 47.0288 30.5901 38.316 35.3895 35.1983C35.3895 35.1983 30.2086 50.538 32.7253 52.2175C37.4285 55.3553 97.4621 44.9607 94.0978 38.9282L94.0976 38.9263Z" fill="#FF0000"/>
<path d="M31.5364 37.3357C35.8647 34.2732 37.2997 31.6104 41.8283 23.9248C41.8283 23.9248 35.0906 36.5818 34.0329 39.6032C32.9751 42.6246 34.4935 36.7668 33.6674 36.8374C32.8412 36.9079 31.0929 37.6453 31.5343 37.3341L31.5364 37.3357Z" fill="black"/>
<path d="M41.8283 23.925C41.8283 23.925 25.6752 40.6764 18.9091 41.3325C18.9091 41.3325 19.58 42.0345 19.712 42.3191C19.8126 42.5339 28.8555 40.9556 34.5682 35.0969C36.9322 32.6729 40.2108 26.6741 41.8303 23.9248L41.8283 23.925Z" fill="#BA0808"/>
<path d="M44.9081 24.792C44.9081 24.792 40.3574 27.5888 35.2682 36.8725C33.4267 40.2325 37.9515 28.1702 44.9081 24.792Z" fill="black"/>
<path d="M28.7193 56.0493C28.71 54.7939 28.5862 53.8722 31.7506 50.9388C35.1625 48.7938 37.8008 47.9078 39.9238 47.4771C40.613 47.3382 36.3014 47.2264 36.8711 46.9953C46.0543 43.2761 55.3034 43.1263 55.3034 43.1263L51.7784 41.4715C57.2138 39.5407 68.9964 38.8134 74.27 39.0924L70.3474 37.7117C77.8352 36.7241 86.9142 37.0354 91.555 38.7084C92.0196 38.8752 91.2482 37.5696 91.2482 37.5696L94.5799 38.1541C98.2888 39.0729 99.9641 40.3926 100.417 43.9512L100.952 49.6223C101.209 51.3702 98.9896 52.9853 95.8246 52.5652C95.8246 52.5652 88.2077 51.7196 65.663 55.1733C44.367 58.4365 37.1616 64.0357 37.1616 64.0357C33.7375 65.8318 31.524 64.2641 29.9899 61.0901L28.7175 56.0513L28.7193 56.0493Z" fill="black"/>
<path d="M34.746 63.6563C35.2767 63.6109 35.8716 63.4224 36.5152 63.0939C37.0478 62.7041 38.5908 61.3292 44.1909 59.3099C44.5861 59.1682 42.8402 59.2225 42.8402 59.2225C46.161 58.4866 53.133 56.4357 57.7147 55.4693C58.8072 55.2383 54.8637 55.1713 56.0551 54.9523C57.4335 54.6987 63.9668 54.297 65.4841 54.065C71.5629 53.1345 81.2152 52.7287 84.7523 50.5823C85.2158 50.3008 83.0649 51.8728 83.5918 51.8278C88.2747 51.4278 91.4366 51.2843 93.3888 51.352C95.2566 51.4176 96.0544 50.5567 95.9659 50.7355C95.5736 51.5301 95.911 51.4455 95.9683 51.4517L95.9941 51.4551C96.4457 51.5152 96.8854 51.5279 97.2994 51.4925C98.2675 51.4098 99.0972 51.0598 99.5201 50.5547C99.7282 50.308 99.812 50.0515 99.7744 49.7942L99.7696 49.7387L99.2338 44.0843C98.8683 41.2273 97.1114 39.6169 92.7689 38.8229L93.6319 40.1226C88.8554 38.6491 86.0591 37.0884 74.8498 38.0403C75.0378 38.2476 77.565 39.9355 77.565 39.9355C77.565 39.9355 67.9351 39.5708 54.5882 41.9521C54.6698 42.1276 56.8598 43.3753 56.8598 43.3753C56.8598 43.3753 51.6159 44.0856 50.9083 44.1461C47.3839 44.4471 43.111 45.6589 40.303 46.7362C41.4542 46.7793 42.0222 47.2853 42.0527 47.3441C42.0527 47.3441 40.6274 47.7599 39.8902 48.0015C37.2977 48.8501 29.4669 51.942 29.8935 55.9048L31.1072 60.7141C32.644 63.8284 34.21 63.7076 34.7349 63.6628L34.7407 63.6623L34.746 63.6563Z" fill="white"/>
<path d="M31.9727 62.1355C33.1998 63.7781 34.3145 63.6922 34.7422 63.6557L34.7499 63.655C35.2806 63.6097 35.8734 63.4195 36.5189 63.0908C37.0517 62.7029 38.5945 61.3261 44.1946 59.3068C44.5879 59.1653 42.842 59.2195 42.842 59.2195C46.1666 58.4833 53.1348 56.4328 57.7184 55.4662C58.8109 55.2352 54.8674 55.1682 56.0588 54.9492C57.4392 54.6955 63.9685 54.294 65.4859 54.0621C71.5646 53.1297 81.217 52.7258 84.756 50.5792C85.2195 50.2977 83.0687 51.8697 83.5974 51.8246C88.2804 51.4245 91.4403 51.2812 93.3945 51.3487C95.264 51.4123 96.0599 50.5516 95.9735 50.732C95.5812 51.5267 95.9185 51.4402 95.9758 51.4465L96.0017 51.4517C96.4531 51.5099 96.8909 51.5228 97.3069 51.4872C98.2769 51.4044 99.1067 51.0543 99.5274 50.5476C99.7374 50.3007 99.8212 50.0442 99.7836 49.7869L99.7789 49.7315L99.2432 44.0789C98.9886 42.1075 98.0761 40.7321 96.1093 39.8058C96.7421 40.2673 98.3144 41.2979 98.2935 43.3691L98.6096 47.9406C98.5761 48.6488 98.2366 49.0983 98.0009 49.3194C97.2865 49.9872 96.2724 49.9212 95.3024 50.004C94.8883 50.0394 94.4466 50.0269 93.9972 49.9685L93.9713 49.9633C93.9139 49.957 93.5765 50.0417 93.967 49.249C94.0555 49.0703 93.2576 49.9293 91.3899 49.8656C89.4377 49.7978 86.2759 49.9414 81.5929 50.3414C81.0622 50.3867 83.215 48.8145 82.7515 49.0961C79.2124 51.2426 69.56 51.6465 63.4813 52.5789C61.964 52.8109 54.8532 53.9021 53.4748 54.1557C52.2853 54.3746 55.8704 54.8295 54.7798 55.0603C50.1962 56.0269 43.7061 57.3703 40.3852 58.1044C40.3852 58.1044 42.261 58.2866 41.8679 58.4299C36.2639 60.4495 35.0471 61.2197 34.5126 61.6096C33.8709 61.938 33.2763 62.1284 32.7436 62.1739L32.7397 62.1742C32.5764 62.1881 32.3101 62.2109 31.9768 62.137L31.9727 62.1355Z" fill="#E5E5E5"/>
<path d="M18.8884 52.7132C19.88 51.8748 25.6582 48.2269 22.8651 42.0283C22.0463 40.2131 19.8226 38.021 18.3823 37.0684C18.2121 36.9564 19.5996 39.6517 18.608 39.0236C15.3908 36.9834 10.4992 35.3542 7.43748 36.4178C7.177 36.5089 9.82291 37.6377 9.56626 37.7508C9.20959 37.9078 4.57447 39.785 3.0349 43.7911C3.0349 43.7911 4.06044 42.9368 4.73413 43.7632C5.13454 44.2556 3.61117 46.0216 4.86794 50.1665C5.47614 52.1747 7.78227 55.24 9.92685 55.3825C9.92685 55.3825 9.61821 53.626 10.0707 53.766C15.3465 55.3773 20.2178 54.3843 20.5952 53.7138C20.6342 53.6434 18.3367 53.1772 18.8863 52.7115L18.8884 52.7132Z" fill="black"/>
<path d="M18.2203 53.4423C17.9948 53.4616 17.432 53.223 17.7606 52.7837C18.1754 52.2291 24.6553 48.9567 21.7361 42.4507C21.3298 41.5456 19.9189 39.6079 20.0218 40.0103C20.1333 40.4437 20.1121 41.778 19.2508 40.9099C17.2263 38.872 12.8248 36.8362 10.1598 37.1345C10.1595 37.1997 11.1017 37.5938 10.8601 38.0666C10.689 38.4013 6.59456 39.2498 3.98992 42.8909C4.87374 42.326 5.63826 42.9548 5.63829 43.2302C5.64087 44.7504 4.68353 46.2428 5.59947 49.332C6.08668 50.9783 7.45632 53.2582 8.56039 53.7817C8.7309 53.5085 8.40017 52.502 9.18182 51.7039C9.34027 51.5415 9.21423 52.0603 10.2111 52.6581C13.9012 54.8701 18.0724 53.5908 18.2204 53.4441L18.2203 53.4423Z" fill="white"/>
<path d="M5.23886 47.6542C5.29272 48.193 5.40879 48.7954 5.61539 49.4719C6.11784 51.1131 7.50256 53.3862 8.61167 53.9C8.77814 53.6252 8.73078 52.429 9.03881 51.863C9.0811 51.7849 9.25142 52.1742 10.2554 52.764C13.9631 54.9521 18.124 53.6439 18.272 53.4973C18.0484 53.5163 17.4821 53.2819 17.8068 52.8428C18.1945 52.3147 24.0062 49.3115 22.0989 43.4877C22.4622 48.1538 17.7913 50.598 17.4459 51.0704C17.1212 51.5094 17.6857 51.7459 17.9111 51.7248C17.763 51.8714 13.6002 53.1798 9.8927 50.9935C8.8926 50.4034 9.01896 49.8883 8.85631 50.0474C8.39953 50.4995 8.20606 51.8336 8.2509 52.1294C7.14373 51.6154 5.75513 49.3427 5.25463 47.7013C5.25142 47.6866 5.24416 47.6705 5.24112 47.6577L5.23886 47.6542Z" fill="#E5E5E5"/>
</g>
<defs>
<clipPath id="clip0_628_6581">
<rect width="97.0696" height="59.2739" fill="white" transform="matrix(-0.996372 0.0851101 0.0851101 0.996372 96.7174 0)"/>
</clipPath>
</defs>
</svg>
