<svg width="109" height="23" viewBox="0 0 109 23" fill="none" xmlns="http://www.w3.org/2000/svg">
    <path
        d="M98.7991 22.344C97.3271 22.344 96.022 22.0398 94.8837 21.4314C93.7454 20.8034 92.8622 19.93 92.2342 18.8113C91.6061 17.673 91.2921 16.3581 91.2921 14.8665C91.2921 13.3945 91.6061 12.0894 92.2342 10.9511C92.8622 9.79317 93.7356 8.90018 94.8542 8.27215C95.9925 7.64412 97.3075 7.3301 98.7991 7.3301C99.7804 7.3301 100.683 7.46748 101.507 7.74225C102.332 8.01701 103.038 8.40953 103.627 8.91981V0.146973H108.808V21.9024H103.804V20.4894C102.489 21.7258 100.821 22.344 98.7991 22.344ZM100.153 18.3403C100.938 18.3403 101.645 18.144 102.273 17.7515C102.901 17.3394 103.352 16.7898 103.627 16.1029V13.6006C103.352 12.9137 102.901 12.374 102.273 11.9815C101.645 11.5693 100.938 11.3632 100.153 11.3632C99.0935 11.3632 98.2397 11.6773 97.5921 12.3053C96.9444 12.9333 96.6206 13.7871 96.6206 14.8665C96.6206 15.9459 96.9444 16.7997 97.5921 17.4277C98.2397 18.0361 99.0935 18.3403 100.153 18.3403Z"
        fill="#FF3B10" />
    <path
        d="M82.5307 22.3444C79.7635 22.3444 77.585 21.6967 75.9953 20.4014C74.4252 19.1061 73.6401 17.271 73.6401 14.8963C73.6401 12.5608 74.3369 10.7159 75.7303 9.36174C77.1434 8.00754 79.1747 7.33044 81.8242 7.33044C83.512 7.33044 84.9545 7.65427 86.1517 8.30193C87.3685 8.92997 88.2812 9.80333 88.8896 10.922C89.5176 12.0211 89.8316 13.2673 89.8316 14.6608V16.5743H78.5565C78.7527 17.3593 79.2434 17.9285 80.0284 18.2818C80.8134 18.635 81.8831 18.8117 83.2373 18.8117C84.1597 18.8117 85.1017 18.7332 86.0634 18.5762C87.0447 18.4192 87.8886 18.2033 88.5952 17.9285V21.3434C87.869 21.6378 86.9564 21.8733 85.8573 22.05C84.7779 22.2462 83.669 22.3444 82.5307 22.3444ZM84.9447 13.336C84.8662 12.5706 84.5522 11.972 84.0027 11.5402C83.4532 11.1085 82.6976 10.8926 81.7359 10.8926C80.7938 10.8926 80.048 11.1183 79.4985 11.5697C78.949 12.0014 78.635 12.5902 78.5565 13.336H84.9447Z"
        fill="#FF3B10" />
    <path
        d="M63.466 22.3444C61.7193 22.3444 60.1885 22.0303 58.8735 21.4023C57.5586 20.7547 56.538 19.8715 55.8119 18.7528C55.1053 17.6145 54.7521 16.3094 54.7521 14.8374C54.7521 13.3654 55.1053 12.0701 55.8119 10.9514C56.538 9.81314 57.5586 8.92997 58.8735 8.30193C60.1885 7.65427 61.7193 7.33044 63.466 7.33044C65.2127 7.33044 66.7436 7.65427 68.0585 8.30193C69.3735 8.92997 70.3842 9.81314 71.0907 10.9514C71.8169 12.0701 72.18 13.3654 72.18 14.8374C72.18 16.3094 71.8169 17.6145 71.0907 18.7528C70.3842 19.8715 69.3735 20.7547 68.0585 21.4023C66.7436 22.0303 65.2127 22.3444 63.466 22.3444ZM63.466 18.3112C64.5062 18.3112 65.3305 18.007 65.9389 17.3986C66.5669 16.7706 66.881 15.9168 66.881 14.8374C66.881 13.758 66.5669 12.9141 65.9389 12.3056C65.3305 11.6776 64.5062 11.3636 63.466 11.3636C62.4259 11.3636 61.5917 11.6776 60.9637 12.3056C60.3553 12.9141 60.0511 13.758 60.0511 14.8374C60.0511 15.9168 60.3553 16.7706 60.9637 17.3986C61.5917 18.007 62.4259 18.3112 63.466 18.3112Z"
        fill="#FF3B10" />
    <path
        d="M30.0416 7.77203H34.8402V9.30286C35.429 8.67483 36.1061 8.19399 36.8715 7.86035C37.6369 7.50708 38.4514 7.33044 39.3149 7.33044C40.3747 7.33044 41.2187 7.48745 41.8467 7.80147C42.4943 8.11549 43.0144 8.58651 43.407 9.21454C43.9957 8.62576 44.7121 8.16455 45.556 7.83091C46.3999 7.49727 47.2537 7.33044 48.1172 7.33044C49.9817 7.33044 51.3064 7.81128 52.0915 8.77296C52.8765 9.71501 53.269 11.079 53.269 12.865V21.9028H48.3233V13.601C48.3233 12.8159 48.1761 12.2468 47.8817 11.8935C47.5873 11.5402 47.0966 11.3636 46.4097 11.3636C45.5266 11.3636 44.8102 11.6776 44.2607 12.3056C44.2803 12.6393 44.2901 13.1496 44.2901 13.8365V21.9028H39.3444V13.3949C39.3444 12.6687 39.2168 12.1486 38.9617 11.8346C38.7065 11.5206 38.2551 11.3636 37.6075 11.3636C36.6065 11.3636 35.743 11.9229 35.0168 13.0416V21.9028H30.0416V7.77203Z"
        fill="#FF3B10" />
    <path
        d="M19.2787 22.3444C17.5319 22.3444 16.0011 22.0303 14.6862 21.4023C13.3712 20.7547 12.3507 19.8715 11.6245 18.7528C10.918 17.6145 10.5647 16.3094 10.5647 14.8374C10.5647 13.3654 10.918 12.0701 11.6245 10.9514C12.3507 9.81314 13.3712 8.92997 14.6862 8.30193C16.0011 7.65427 17.5319 7.33044 19.2787 7.33044C21.0254 7.33044 22.5562 7.65427 23.8711 8.30193C25.1861 8.92997 26.1968 9.81314 26.9034 10.9514C27.6295 12.0701 27.9926 13.3654 27.9926 14.8374C27.9926 16.3094 27.6295 17.6145 26.9034 18.7528C26.1968 19.8715 25.1861 20.7547 23.8711 21.4023C22.5562 22.0303 21.0254 22.3444 19.2787 22.3444ZM19.2787 18.3112C20.3188 18.3112 21.1431 18.007 21.7515 17.3986C22.3796 16.7706 22.6936 15.9168 22.6936 14.8374C22.6936 13.758 22.3796 12.9141 21.7515 12.3056C21.1431 11.6776 20.3188 11.3636 19.2787 11.3636C18.2385 11.3636 17.4044 11.6776 16.7763 12.3056C16.1679 12.9141 15.8637 13.758 15.8637 14.8374C15.8637 15.9168 16.1679 16.7706 16.7763 17.3986C17.4044 18.007 18.2385 18.3112 19.2787 18.3112Z"
        fill="#FF3B10" />
    <path
        d="M1.97242 11.3635H0V7.77191H1.97242V6.00557C1.97242 4.10184 2.57101 2.62989 3.7682 1.58971C4.98501 0.529903 6.55509 0 8.47845 0C9.55788 0 10.4999 0.176635 11.3046 0.529903V4.65137C10.7551 4.37661 10.1368 4.23922 9.44993 4.23922C8.66489 4.23922 8.08593 4.41586 7.71303 4.76913C7.34014 5.1224 7.15369 5.68174 7.15369 6.44715V7.77191H10.4214V11.3635H7.15369V21.9027H1.97242V11.3635Z"
        fill="#FF3B10" />
</svg>
    