<svg width="109" height="23" viewBox="0 0 109 23" fill="none" xmlns="http://www.w3.org/2000/svg">
    <path d="M98.7991 22.344C97.3271 22.344 96.022 22.0398 94.8837 21.4314C93.7454 20.8034 92.8622 19.93 92.2342 18.8113C91.6061 17.673 91.2921 16.3581 91.2921 14.8665C91.2921 13.3945 91.6061 12.0894 92.2342 10.9511C92.8622 9.79317 93.7356 8.90018 94.8542 8.27215C95.9925 7.64412 97.3075 7.3301 98.7991 7.3301C99.7804 7.3301 100.683 7.46748 101.507 7.74225C102.332 8.01701 103.038 8.40953 103.627 8.91981V0.146973H108.808V21.9024H103.804V20.4894C102.489 21.7258 100.821 22.344 98.7991 22.344ZM100.153 18.3403C100.938 18.3403 101.645 18.144 102.273 17.7515C102.901 17.3394 103.352 16.7898 103.627 16.1029V13.6006C103.352 12.9137 102.901 12.374 102.273 11.9815C101.645 11.5693 100.938 11.3632 100.153 11.3632C99.0935 11.3632 98.2397 11.6773 97.5921 12.3053C96.9444 12.9333 96.6206 13.7871 96.6206 14.8665C96.6206 15.9459 96.9444 16.7997 97.5921 17.4277C98.2397 18.0361 99.0935 18.3403 100.153 18.3403Z" fill="white"/>
    <path d="M82.5308 22.3445C79.7635 22.3445 77.585 21.6968 75.9953 20.4015C74.4252 19.1062 73.6402 17.2712 73.6402 14.8964C73.6402 12.5609 74.3369 10.7161 75.7304 9.36186C77.1434 8.00767 79.1747 7.33057 81.8242 7.33057C83.5121 7.33057 84.9546 7.6544 86.1518 8.30206C87.3686 8.93009 88.2812 9.80345 88.8896 10.9221C89.5177 12.0212 89.8317 13.2674 89.8317 14.6609V16.5744H78.5565C78.7528 17.3595 79.2434 17.9286 80.0285 18.2819C80.8135 18.6352 81.8831 18.8118 83.2373 18.8118C84.1597 18.8118 85.1018 18.7333 86.0635 18.5763C87.0448 18.4193 87.8887 18.2034 88.5952 17.9286V21.3436C87.8691 21.6379 86.9565 21.8735 85.8574 22.0501C84.778 22.2464 83.6691 22.3445 82.5308 22.3445ZM84.9448 13.3361C84.8663 12.5707 84.5523 11.9721 84.0027 11.5404C83.4532 11.1086 82.6976 10.8927 81.7359 10.8927C80.7939 10.8927 80.0481 11.1184 79.4986 11.5698C78.949 12.0016 78.635 12.5903 78.5565 13.3361H84.9448Z" fill="white"/>
    <path d="M63.466 22.3445C61.7193 22.3445 60.1885 22.0305 58.8735 21.4024C57.5586 20.7548 56.538 19.8716 55.8119 18.7529C55.1053 17.6146 54.7521 16.3095 54.7521 14.8375C54.7521 13.3656 55.1053 12.0703 55.8119 10.9516C56.538 9.81326 57.5586 8.93009 58.8735 8.30206C60.1885 7.6544 61.7193 7.33057 63.466 7.33057C65.2127 7.33057 66.7436 7.6544 68.0585 8.30206C69.3735 8.93009 70.3842 9.81326 71.0907 10.9516C71.8169 12.0703 72.18 13.3656 72.18 14.8375C72.18 16.3095 71.8169 17.6146 71.0907 18.7529C70.3842 19.8716 69.3735 20.7548 68.0585 21.4024C66.7436 22.0305 65.2127 22.3445 63.466 22.3445ZM63.466 18.3113C64.5062 18.3113 65.3305 18.0071 65.9389 17.3987C66.5669 16.7707 66.881 15.917 66.881 14.8375C66.881 13.7581 66.5669 12.9142 65.9389 12.3058C65.3305 11.6777 64.5062 11.3637 63.466 11.3637C62.4259 11.3637 61.5917 11.6777 60.9637 12.3058C60.3553 12.9142 60.0511 13.7581 60.0511 14.8375C60.0511 15.917 60.3553 16.7707 60.9637 17.3987C61.5917 18.0071 62.4259 18.3113 63.466 18.3113Z" fill="white"/>
    <path d="M30.0417 7.77215H34.8403V9.30298C35.429 8.67495 36.1061 8.19411 36.8715 7.86047C37.637 7.5072 38.4514 7.33057 39.315 7.33057C40.3748 7.33057 41.2187 7.48758 41.8467 7.80159C42.4944 8.11561 43.0145 8.58663 43.407 9.21466C43.9958 8.62588 44.7121 8.16467 45.5561 7.83103C46.4 7.49739 47.2537 7.33057 48.1173 7.33057C49.9817 7.33057 51.3065 7.8114 52.0915 8.77308C52.8766 9.71513 53.2691 11.0791 53.2691 12.8651V21.9029H48.3233V13.6011C48.3233 12.816 48.1761 12.2469 47.8818 11.8936C47.5874 11.5404 47.0967 11.3637 46.4098 11.3637C45.5266 11.3637 44.8103 11.6777 44.2607 12.3058C44.2804 12.6394 44.2902 13.1497 44.2902 13.8366V21.9029H39.3444V13.395C39.3444 12.6688 39.2169 12.1488 38.9617 11.8347C38.7066 11.5207 38.2552 11.3637 37.6075 11.3637C36.6066 11.3637 35.7431 11.9231 35.0169 13.0417V21.9029H30.0417V7.77215Z" fill="white"/>
    <path d="M19.2787 22.3445C17.532 22.3445 16.0012 22.0305 14.6862 21.4024C13.3713 20.7548 12.3507 19.8716 11.6246 18.7529C10.918 17.6146 10.5648 16.3095 10.5648 14.8375C10.5648 13.3656 10.918 12.0703 11.6246 10.9516C12.3507 9.81326 13.3713 8.93009 14.6862 8.30206C16.0012 7.6544 17.532 7.33057 19.2787 7.33057C21.0254 7.33057 22.5563 7.6544 23.8712 8.30206C25.1862 8.93009 26.1969 9.81326 26.9034 10.9516C27.6296 12.0703 27.9927 13.3656 27.9927 14.8375C27.9927 16.3095 27.6296 17.6146 26.9034 18.7529C26.1969 19.8716 25.1862 20.7548 23.8712 21.4024C22.5563 22.0305 21.0254 22.3445 19.2787 22.3445ZM19.2787 18.3113C20.3189 18.3113 21.1432 18.0071 21.7516 17.3987C22.3796 16.7707 22.6936 15.917 22.6936 14.8375C22.6936 13.7581 22.3796 12.9142 21.7516 12.3058C21.1432 11.6777 20.3189 11.3637 19.2787 11.3637C18.2385 11.3637 17.4044 11.6777 16.7764 12.3058C16.168 12.9142 15.8638 13.7581 15.8638 14.8375C15.8638 15.917 16.168 16.7707 16.7764 17.3987C17.4044 18.0071 18.2385 18.3113 19.2787 18.3113Z" fill="white"/>
    <path d="M1.97242 11.3635H0V7.77191H1.97242V6.00557C1.97242 4.10184 2.57101 2.62989 3.7682 1.58971C4.98501 0.529903 6.55509 0 8.47845 0C9.55788 0 10.4999 0.176635 11.3046 0.529903V4.65137C10.7551 4.37661 10.1368 4.23922 9.44993 4.23922C8.66489 4.23922 8.08593 4.41586 7.71303 4.76913C7.34014 5.1224 7.15369 5.68174 7.15369 6.44715V7.77191H10.4214V11.3635H7.15369V21.9027H1.97242V11.3635Z" fill="white"/>
    </svg>
    