<svg width="21" height="21" viewBox="0 0 21 21" fill="none" xmlns="http://www.w3.org/2000/svg">
    <path
        d="M20.6859 13.0392C19.283 18.6672 13.5809 22.0884 7.96096 20.6854C2.33279 19.2825 -1.0884 13.5807 0.314579 7.9608C1.71748 2.3328 7.41127 -1.0884 13.0394 0.31458C18.6594 1.70928 22.0889 7.41111 20.6859 13.0392Z"
        fill="#F0B90B" />
    <path
        d="M7.58677 6.71357L10.511 5.07288L13.4359 6.71357L12.3636 7.32092L10.511 6.28481L8.66249 7.32023L7.58677 6.71357ZM13.4359 8.78649L12.3636 8.17914L10.511 9.21525L8.66249 8.17914L7.58746 8.78649V9.99842L9.43385 11.0352V13.1047L10.5117 13.712L11.5867 13.1047V11.0352L13.4365 9.99842L13.4359 8.78649ZM13.4359 12.0713V10.8573L12.3636 11.4647V12.6766L13.4359 12.0713ZM14.201 12.5001L12.3518 13.5334V14.7488L15.276 13.1047V9.82261L14.201 10.4272V12.5001ZM13.1259 7.75107L14.1982 8.35843V9.57036L15.276 8.96578V7.75107L14.201 7.14302L13.1259 7.75385V7.75107ZM9.43315 13.9754V15.1873L10.511 15.7947L11.586 15.1873V13.9775L10.511 14.5821L9.43593 13.9747L9.43315 13.9754ZM7.58677 12.0693L8.65902 12.6766V11.4647L7.58677 10.8566V12.0727V12.0693ZM9.43315 7.75107L10.511 8.35773L11.586 7.75038L10.511 7.14233L9.43593 7.75316L9.43315 7.75107ZM6.82097 8.35843L7.896 7.75107L6.82375 7.14302L5.74664 7.75385V8.96717L6.82097 9.57175V8.35843ZM6.82097 10.4279L5.74594 9.8233V13.1054L8.67083 14.7495V13.5314L6.82375 12.4973V10.4244L6.82097 10.4279Z"
        fill="white" />
</svg>
    