<svg width="23" height="24" viewBox="0 0 23 24" fill="none" xmlns="http://www.w3.org/2000/svg">
    <g clip-path="url(#clip0_66_344)">
        <path
            d="M22.656 14.781C21.1195 20.945 14.8743 24.692 8.71914 23.1554C2.55496 21.6189 -1.19206 15.3741 0.344538 9.21896C1.88105 3.05496 8.1171 -0.692059 14.2813 0.844539C20.4365 2.37206 24.1926 8.61692 22.656 14.781Z"
            fill="url(#paint0_linear_66_344)" />
        <path
            d="M16.9755 10.567C17.2001 9.03962 16.0411 8.21306 14.4419 7.66501L14.963 5.58962L13.7052 5.27517L13.2021 7.29666C12.8697 7.2158 12.5283 7.13494 12.1868 7.06306L12.69 5.03259L11.4322 4.71814L10.92 6.78455C10.6415 6.72165 10.372 6.65876 10.1115 6.59587V6.58689L8.36849 6.15564L8.03607 7.5033C8.03607 7.5033 8.97044 7.71892 8.95247 7.72791C9.46458 7.85369 9.55442 8.19509 9.53646 8.46462L8.94349 10.8275C8.97942 10.8365 9.02435 10.8455 9.07825 10.8724C9.03333 10.8635 8.98841 10.8545 8.94349 10.8365L8.11693 14.1427C8.05403 14.2955 7.89232 14.5291 7.54192 14.4392C7.55091 14.4572 6.62552 14.2146 6.62552 14.2146L5.99661 15.6611L7.64075 16.0744C7.94622 16.1552 8.24271 16.2271 8.53919 16.308L8.0181 18.4013L9.27591 18.7158L9.797 16.6404C10.1384 16.7302 10.4798 16.8201 10.8033 16.901L10.2911 18.9674L11.549 19.2818L12.07 17.1885C14.2263 17.5927 15.8435 17.431 16.5173 15.4814C17.0654 13.9181 16.4904 13.0107 15.3583 12.4177C16.1939 12.2291 16.8138 11.681 16.9755 10.567ZM14.0915 14.6099C13.7052 16.1732 11.0638 15.3287 10.2103 15.1131L10.9021 12.3369C11.7556 12.5525 14.5048 12.9748 14.0915 14.6099ZM14.4868 10.54C14.1275 11.9685 11.9353 11.2408 11.2255 11.0611L11.8544 8.54548C12.5642 8.72517 14.8552 9.05759 14.4868 10.54Z"
            fill="white" />
    </g>
    <defs>
        <linearGradient id="paint0_linear_66_344" x1="1149.38" y1="-0.0519995" x2="1149.38"
            y2="2300.27" gradientUnits="userSpaceOnUse">
            <stop stop-color="#F9AA4B" />
            <stop offset="1" stop-color="#F7931A" />
        </linearGradient>
        <clipPath id="clip0_66_344">
            <rect width="23" height="23" fill="white" transform="translate(0 0.5)" />
        </clipPath>
    </defs>
</svg>
    