<svg width="21" height="21" viewBox="0 0 21 21" fill="none" xmlns="http://www.w3.org/2000/svg">
    <path
        d="M20.6859 13.0392C19.283 18.6672 13.5809 22.0884 7.96096 20.6854C2.33279 19.2825 -1.0884 13.5807 0.314579 7.9608C1.71748 2.3328 7.41127 -1.0884 13.0394 0.31458C18.6594 1.70928 22.0889 7.41111 20.6859 13.0392Z"
        fill="#121212" />
    <path
        d="M13.9063 8.34004C13.8469 8.39463 13.7695 8.42533 13.6888 8.42621H6.05241C5.78139 8.42621 5.64449 8.11627 5.83212 7.9349L7.08644 6.72575C7.14474 6.66947 7.22223 6.63743 7.30325 6.63611H14.9695C15.2433 6.63611 15.3774 6.94882 15.187 7.13089L13.9063 8.34004Z"
        fill="url(#paint0_linear_66_298)" />
    <path
        d="M13.9063 14.2996C13.8465 14.3532 13.7691 14.3829 13.6888 14.383H6.05241C5.78139 14.383 5.64449 14.0759 5.83212 13.8945L7.08644 12.6819C7.14489 12.6263 7.22257 12.5954 7.30325 12.5957H14.9695C15.2433 12.5957 15.3774 12.9056 15.187 13.087L13.9063 14.2996Z"
        fill="url(#paint1_linear_66_298)" />
    <path
        d="M13.9063 9.7007C13.8465 9.64711 13.7691 9.61743 13.6888 9.61731H6.05241C5.78139 9.61731 5.64449 9.92446 5.83212 10.1058L7.08644 11.3185C7.14564 11.3729 7.22284 11.4036 7.30325 11.4046H14.9695C15.2433 11.4046 15.3774 11.0947 15.187 10.9133L13.9063 9.7007Z"
        fill="url(#paint2_linear_66_298)" />
    <defs>
        <linearGradient id="paint0_linear_66_298" x1="5.74595" y1="33.2992" x2="15.5192"
            y2="33.2096" gradientUnits="userSpaceOnUse">
            <stop stop-color="#599DB0" />
            <stop offset="1" stop-color="#47F8C3" />
        </linearGradient>
        <linearGradient id="paint1_linear_66_298" x1="5.74595" y1="9.00995" x2="15.4567" y2="8.9356"
            gradientUnits="userSpaceOnUse">
            <stop stop-color="#C44FE2" />
            <stop offset="1" stop-color="#73B0D0" />
        </linearGradient>
        <linearGradient id="paint2_linear_66_298" x1="6.29424" y1="10.511" x2="14.907" y2="10.511"
            gradientUnits="userSpaceOnUse">
            <stop stop-color="#778CBF" />
            <stop offset="1" stop-color="#5DCDC9" />
        </linearGradient>
    </defs>
</svg>
    