<svg width="21" height="21" viewBox="0 0 21 21" fill="none" xmlns="http://www.w3.org/2000/svg">
    <path
        d="M20.6859 13.0392C19.283 18.6672 13.5809 22.0884 7.96096 20.6854C2.33279 19.2825 -1.0884 13.5807 0.314579 7.9608C1.71748 2.3328 7.41127 -1.0884 13.0394 0.31458C18.6594 1.70928 22.0889 7.41111 20.6859 13.0392Z"
        fill="#27A17B" />
    <path
        d="M6.73901 5.99243H14.2053V7.76941H6.73901V5.99243ZM11.5921 11.0396V14.9594H9.35221V11.0396H11.5921Z"
        fill="white" />
    <path
        d="M10.4722 8.79224C7.7395 8.79224 5.52948 9.33727 5.52948 10.0018C5.52948 10.6663 7.74696 11.2113 10.4722 11.2113C13.1973 11.2113 15.4148 10.6663 15.4148 10.0018C15.4148 9.33727 13.1973 8.79224 10.4722 8.79224ZM10.4722 10.6588C7.94855 10.6588 5.90279 10.2855 5.90279 9.82258C5.90279 9.35967 7.94855 8.98636 10.4722 8.98636C12.9958 8.98636 15.0415 9.35967 15.0415 9.82258C15.0415 10.2855 12.9958 10.6588 10.4722 10.6588Z"
        fill="white" />
    <path
        d="M10.4722 10.3825C10.8604 10.3825 11.2337 10.3751 11.5921 10.3527V7.29895H9.35223V10.3527C9.71062 10.3676 10.0839 10.3825 10.4722 10.3825Z"
        fill="white" />
</svg>
    